<?plantuml 1.2026.0?><svg xmlns="http://www.w3.org/2000/svg" xmlns:xlink="http://www.w3.org/1999/xlink" contentStyleType="text/css" data-diagram-type="DESCRIPTION" height="987px" preserveAspectRatio="none" style="width:1448px;height:987px;background:#FFFFFF;" version="1.1" viewBox="0 0 1448 987" width="1448px" zoomAndPan="magnify"><title>Uber Application Deployment Diagram (Physical View)</title><defs/><g><g class="title" data-source-line="24"><text fill="#000000" font-family="Verdana" font-size="22" font-weight="bold" lengthAdjust="spacing" textLength="675.082" x="382.0266" y="35.4209">Uber Application Deployment Diagram (Physical View)</text></g><!--cluster SmartPhone--><g class="cluster" data-qualified-name="SmartPhone" data-source-line="27" id="ent0002"><polygon fill="#F5F5F5" points="292.1352,139.6094,302.1352,129.6094,506.1352,129.6094,506.1352,254.1994,496.1352,264.1994,292.1352,264.1994,292.1352,139.6094" style="stroke:#00008B;stroke-width:1;"/><line style="stroke:#00008B;stroke-width:1;" x1="496.1352" x2="506.1352" y1="139.6094" y2="129.6094"/><line style="stroke:#00008B;stroke-width:1;" x1="292.1352" x2="496.1352" y1="139.6094" y2="139.6094"/><line style="stroke:#00008B;stroke-width:1;" x1="496.1352" x2="496.1352" y1="139.6094" y2="264.1994"/><text fill="#000000" font-family="Verdana" font-size="14" font-style="italic" lengthAdjust="spacing" textLength="63.1162" x="363.5771" y="155.6045">&#171;device&#187;</text><text fill="#000000" font-family="Verdana" font-size="14" font-weight="bold" lengthAdjust="spacing" textLength="137.7578" x="326.2563" y="171.9014">User Smartphone</text></g><!--cluster Computer--><g class="cluster" data-qualified-name="Computer" data-source-line="31" id="ent0004"><polygon fill="#F5F5F5" points="538.1352,67.6094,548.1352,57.6094,865.1352,57.6094,865.1352,286.1994,855.1352,296.1994,538.1352,296.1994,538.1352,67.6094" style="stroke:#00008B;stroke-width:1;"/><line style="stroke:#00008B;stroke-width:1;" x1="855.1352" x2="865.1352" y1="67.6094" y2="57.6094"/><line style="stroke:#00008B;stroke-width:1;" x1="538.1352" x2="855.1352" y1="67.6094" y2="67.6094"/><line style="stroke:#00008B;stroke-width:1;" x1="855.1352" x2="855.1352" y1="67.6094" y2="296.1994"/><text fill="#000000" font-family="Verdana" font-size="14" font-style="italic" lengthAdjust="spacing" textLength="63.1162" x="666.0771" y="83.6045">&#171;device&#187;</text><text fill="#000000" font-family="Verdana" font-size="14" font-weight="bold" lengthAdjust="spacing" textLength="118.5352" x="638.3677" y="99.9014">User Computer</text></g><!--cluster Web Browser--><g class="cluster" data-qualified-name="Computer.Web Browser" data-source-line="32" id="ent0005"><polygon fill="#F5F5F5" points="578.1352,139.6094,588.1352,129.6094,833.1352,129.6094,833.1352,254.1994,823.1352,264.1994,578.1352,264.1994,578.1352,139.6094" style="stroke:#00008B;stroke-width:1;"/><line style="stroke:#00008B;stroke-width:1;" x1="823.1352" x2="833.1352" y1="139.6094" y2="129.6094"/><line style="stroke:#00008B;stroke-width:1;" x1="578.1352" x2="823.1352" y1="139.6094" y2="139.6094"/><line style="stroke:#00008B;stroke-width:1;" x1="823.1352" x2="823.1352" y1="139.6094" y2="264.1994"/><text fill="#000000" font-family="Verdana" font-size="14" font-style="italic" lengthAdjust="spacing" textLength="179.9492" x="611.6606" y="155.6045">&#171;execution environment&#187;</text><text fill="#000000" font-family="Verdana" font-size="14" font-weight="bold" lengthAdjust="spacing" textLength="104.6924" x="649.289" y="171.9014">Web Browser</text></g><!--cluster External Payment Provider--><g class="cluster" data-qualified-name="External Payment Provider" data-source-line="38" id="ent0007"><polygon fill="#F5F5F5" points="1143.1352,805.7894,1153.1352,795.7894,1431.1352,795.7894,1431.1352,904.0894,1421.1352,914.0894,1143.1352,914.0894,1143.1352,805.7894" style="stroke:#00008B;stroke-width:1;"/><line style="stroke:#00008B;stroke-width:1;" x1="1421.1352" x2="1431.1352" y1="805.7894" y2="795.7894"/><line style="stroke:#00008B;stroke-width:1;" x1="1143.1352" x2="1421.1352" y1="805.7894" y2="805.7894"/><line style="stroke:#00008B;stroke-width:1;" x1="1421.1352" x2="1421.1352" y1="805.7894" y2="914.0894"/><text fill="#000000" font-family="Verdana" font-size="14" font-style="italic" lengthAdjust="spacing" textLength="75.2295" x="1245.5205" y="821.7845">&#171;external&#187;</text><text fill="#000000" font-family="Verdana" font-size="14" font-weight="bold" lengthAdjust="spacing" textLength="212.3516" x="1176.9595" y="838.0814">External Payment Provider</text></g><!--cluster Cloud Infrastructure (AWS)--><g class="cluster" data-qualified-name="Cloud Infrastructure .AWS." data-source-line="43" id="ent0009"><path d="M63.8817,370.792 C85.0031,332.7661 123.6537,338.034 143.9035,371.764 C156.9457,338.802 184.3237,329.7969 208.9757,359.7577 C234.7492,320.9691 266.9043,321.083 290.0737,362.3943 C312.9365,320.9311 340.8773,320.2846 368.8718,357.2375 C393.9181,321.1233 416.0148,325.5018 437.681,360.5078 C456.621,331.0487 488.1141,331.6578 507.0324,360.5335 C531.0297,322.8084 565.2781,321.6998 584.2093,365.3388 C607.0444,329.7 639.4917,318.6028 667.0484,360.2799 C688.0175,322.949 725.3797,325.3393 741.9105,364.617 C761.7913,325.4435 788.0492,322.4156 814.5648,358.1847 C835.1671,330.1617 865.5015,333.5003 882.2805,362.7083 C913.9283,328.6021 941.3801,324.7067 964.266,371.5791 C991.078,331.8922 1014.4397,334.96 1041.3371,371.4927 C1064.0397,338.0788 1085.3312,335.8824 1111.1352,368.1994 C1117.6276,363.5455 1122.6034,367.5869 1123.6063,374.2491 C1154.1534,396.811 1148.8472,426.9856 1118.577,445.2388 C1147.4982,461.799 1149.5927,491.2826 1118.3619,507.6354 C1156.2708,519.6283 1166.3997,553.4419 1133.5714,580.2509 C1170.5103,605.6778 1169.8099,627.4992 1130.8528,649.9666 C1158.0076,674.4617 1165.7204,697.7161 1127.0047,718.5133 C1161.7258,741.4417 1151.1081,776.3527 1118.0636,790.9123 C1147.7536,810.5161 1148.4157,839.2843 1119.195,859.8549 C1145.9372,885.913 1146.1248,918.7689 1104.1352,930.0894 C1110.2712,924.7991 1115.3788,927.2637 1116.3686,934.9433 C1094.0165,965.7955 1063.8118,966.7911 1040.4323,936.2134 C1014.1799,979.181 988.4435,979.9927 957.7057,940.7256 C930.7858,980.3036 905.5717,977.324 883.1353,936.564 C867.4419,975.0782 835.2253,968.1901 815.2119,941.0321 C794.3349,973.9625 761.1546,971.5394 742.8825,938.1894 C719.5984,972.7276 681.8976,973.8415 663.8164,932.75 C643.7599,969.0229 604.7276,967.8061 584.5526,932.8819 C566.3038,969.8032 537.943,966.2403 515.0479,937.8247 C489.0253,971.9788 456.4489,970.7049 436.2459,931.5676 C422.4946,967.4586 385.9874,978.5129 360.8068,943.7752 C337.3049,971.6795 301.8214,974.4867 287.8335,933.6722 C270.4474,972.1656 238.3204,971.1374 212.5785,943.1277 C190.4906,969.9735 159.5407,964.9064 146.1724,933.2329 C115.5205,976.1306 73.4497,966.7563 52.1352,923.0894 C58.6515,919.8496 63.5645,922.0274 63.6226,929.8162 C34.6453,914.307 28.7484,889.0912 53.9153,865.42 C19.3014,842.5896 21.482,819.2827 52.3807,795.0241 C11,773.3363 19.4903,745.172 49.2508,720.4966 C15.5746,702.2913 19.8143,670.2634 52.5115,655.3819 C22.125,632.3141 17.464,602.9389 52.7349,580.0658 C26.4936,560.1451 21.0229,537.4855 53.5249,518.3164 C15.8328,494.2725 24.1819,463.3662 55.7194,441.2948 C23.247,413.6838 23.2331,385.8944 59.1352,361.1994 C64.802,361.4089 67.1386,366.167 63.8817,370.792" fill="#E0FFFF" style="stroke:#008B8B;stroke-width:1;"/><text fill="#000000" font-family="Verdana" font-size="14" font-weight="bold" lengthAdjust="spacing" textLength="214.457" x="474.4067" y="379.1945">Cloud Infrastructure (AWS)</text></g><!--cluster CDN--><g class="cluster" data-qualified-name="Cloud Infrastructure .AWS..CDN" data-source-line="45" id="ent0010"><polygon fill="#F5F5F5" points="115.1352,414.1994,125.1352,404.1994,502.1352,404.1994,502.1352,505.4994,492.1352,515.4994,115.1352,515.4994,115.1352,414.1994" style="stroke:#00008B;stroke-width:1;"/><line style="stroke:#00008B;stroke-width:1;" x1="492.1352" x2="502.1352" y1="414.1994" y2="404.1994"/><line style="stroke:#00008B;stroke-width:1;" x1="115.1352" x2="492.1352" y1="414.1994" y2="414.1994"/><line style="stroke:#00008B;stroke-width:1;" x1="492.1352" x2="492.1352" y1="414.1994" y2="515.4994"/><text fill="#000000" font-family="Verdana" font-size="14" font-weight="bold" lengthAdjust="spacing" textLength="311.1924" x="149.039" y="430.1945">Content Delivery Network / Web Server</text></g><!--cluster LB--><g class="cluster" data-qualified-name="Cloud Infrastructure .AWS..LB" data-source-line="49" id="ent0012"><polygon fill="#F5F5F5" points="562.1352,418.6994,572.1352,408.6994,823.1352,408.6994,823.1352,500.9994,813.1352,510.9994,562.1352,510.9994,562.1352,418.6994" style="stroke:#00008B;stroke-width:1;"/><line style="stroke:#00008B;stroke-width:1;" x1="813.1352" x2="823.1352" y1="418.6994" y2="408.6994"/><line style="stroke:#00008B;stroke-width:1;" x1="562.1352" x2="813.1352" y1="418.6994" y2="418.6994"/><line style="stroke:#00008B;stroke-width:1;" x1="813.1352" x2="813.1352" y1="418.6994" y2="510.9994"/><text fill="#000000" font-family="Verdana" font-size="14" font-weight="bold" lengthAdjust="spacing" textLength="185.0352" x="596.1177" y="434.6945">Load Balancer / Ingress</text></g><!--cluster K8s--><g class="cluster" data-qualified-name="Cloud Infrastructure .AWS..K8s" data-source-line="54" id="ent0014"><polygon fill="#F5F5F5" points="259.1352,582.4994,269.1352,572.4994,1046.1352,572.4994,1046.1352,736.7894,1036.1352,746.7894,259.1352,746.7894,259.1352,582.4994" style="stroke:#00008B;stroke-width:1;"/><line style="stroke:#00008B;stroke-width:1;" x1="1036.1352" x2="1046.1352" y1="582.4994" y2="572.4994"/><line style="stroke:#00008B;stroke-width:1;" x1="259.1352" x2="1036.1352" y1="582.4994" y2="582.4994"/><line style="stroke:#00008B;stroke-width:1;" x1="1036.1352" x2="1036.1352" y1="582.4994" y2="746.7894"/><text fill="#000000" font-family="Verdana" font-size="14" font-weight="bold" lengthAdjust="spacing" textLength="295.1484" x="501.061" y="598.4945">Kubernetes Cluster (Application Tier)</text></g><!--cluster Pod--><g class="cluster" data-qualified-name="Cloud Infrastructure .AWS..K8s.Pod" data-source-line="55" id="ent0015"><polygon fill="#F5F5F5" points="283.1352,630.4994,293.1352,620.4994,1022.1352,620.4994,1022.1352,712.7894,1012.1352,722.7894,283.1352,722.7894,283.1352,630.4994" style="stroke:#00008B;stroke-width:1;"/><line style="stroke:#00008B;stroke-width:1;" x1="1012.1352" x2="1022.1352" y1="630.4994" y2="620.4994"/><line style="stroke:#00008B;stroke-width:1;" x1="283.1352" x2="1012.1352" y1="630.4994" y2="630.4994"/><line style="stroke:#00008B;stroke-width:1;" x1="1012.1352" x2="1012.1352" y1="630.4994" y2="722.7894"/><text fill="#000000" font-family="Verdana" font-size="14" font-weight="bold" lengthAdjust="spacing" textLength="29.9004" x="633.685" y="646.4945">Pod</text></g><!--cluster KafkaCluster--><g class="cluster" data-qualified-name="Cloud Infrastructure .AWS..KafkaCluster" data-source-line="64" id="ent0020"><polygon fill="#F5F5F5" points="451.1352,821.7894,461.1352,811.7894,715.1352,811.7894,715.1352,904.0894,705.1352,914.0894,451.1352,914.0894,451.1352,821.7894" style="stroke:#00008B;stroke-width:1;"/><line style="stroke:#00008B;stroke-width:1;" x1="705.1352" x2="715.1352" y1="821.7894" y2="811.7894"/><line style="stroke:#00008B;stroke-width:1;" x1="451.1352" x2="705.1352" y1="821.7894" y2="821.7894"/><line style="stroke:#00008B;stroke-width:1;" x1="705.1352" x2="705.1352" y1="821.7894" y2="914.0894"/><text fill="#000000" font-family="Verdana" font-size="14" font-weight="bold" lengthAdjust="spacing" textLength="188.1729" x="485.0488" y="837.7845">Message Broker Cluster</text></g><!--cluster RedisNode--><g class="cluster" data-qualified-name="Cloud Infrastructure .AWS..RedisNode" data-source-line="68" id="ent0022"><polygon fill="#F5F5F5" points="108.1352,821.7894,118.1352,811.7894,288.1352,811.7894,288.1352,904.0894,278.1352,914.0894,108.1352,914.0894,108.1352,821.7894" style="stroke:#00008B;stroke-width:1;"/><line style="stroke:#00008B;stroke-width:1;" x1="278.1352" x2="288.1352" y1="821.7894" y2="811.7894"/><line style="stroke:#00008B;stroke-width:1;" x1="108.1352" x2="278.1352" y1="821.7894" y2="821.7894"/><line style="stroke:#00008B;stroke-width:1;" x1="278.1352" x2="278.1352" y1="821.7894" y2="914.0894"/><text fill="#000000" font-family="Verdana" font-size="14" font-weight="bold" lengthAdjust="spacing" textLength="104.7676" x="141.7514" y="837.7845">Redis Cluster</text></g><!--cluster DBServer--><g class="cluster" data-qualified-name="Cloud Infrastructure .AWS..DBServer" data-source-line="72" id="ent0024"><polygon fill="#F5F5F5" points="785.1352,821.7894,795.1352,811.7894,1072.1352,811.7894,1072.1352,904.0894,1062.1352,914.0894,785.1352,914.0894,785.1352,821.7894" style="stroke:#00008B;stroke-width:1;"/><line style="stroke:#00008B;stroke-width:1;" x1="1062.1352" x2="1072.1352" y1="821.7894" y2="811.7894"/><line style="stroke:#00008B;stroke-width:1;" x1="785.1352" x2="1062.1352" y1="821.7894" y2="821.7894"/><line style="stroke:#00008B;stroke-width:1;" x1="1062.1352" x2="1062.1352" y1="821.7894" y2="914.0894"/><text fill="#000000" font-family="Verdana" font-size="14" font-weight="bold" lengthAdjust="spacing" textLength="211.0869" x="819.0918" y="837.7845">Database Server (Primary)</text></g><!--entity mobile_app--><g class="entity" data-qualified-name="SmartPhone.mobile_app" data-source-line="28" id="ent0003"><rect fill="#FFFFFF" height="62.5938" rx="2.5" ry="2.5" style="stroke:#000000;stroke-width:1;" width="181.7227" x="308.2752" y="185.6094"/><rect fill="#FFFFFF" height="10" style="stroke:#000000;stroke-width:1;" width="15" x="469.9979" y="190.6094"/><rect fill="#FFFFFF" height="2" style="stroke:#000000;stroke-width:1;" width="4" x="467.9979" y="192.6094"/><rect fill="#FFFFFF" height="2" style="stroke:#000000;stroke-width:1;" width="4" x="467.9979" y="196.6094"/><text fill="#000000" font-family="Verdana" font-size="14" lengthAdjust="spacing" textLength="141.7227" x="323.2752" y="218.6045">Mobile App Instance</text><text fill="#000000" font-family="Verdana" font-size="14" lengthAdjust="spacing" textLength="93.8711" x="323.2752" y="234.9014">(iOS/Android)</text></g><!--entity web_app--><g class="entity" data-qualified-name="Computer.Web Browser.web_app" data-source-line="33" id="ent0006"><rect fill="#FFFFFF" height="62.5938" rx="2.5" ry="2.5" style="stroke:#000000;stroke-width:1;" width="167.1416" x="621.5652" y="185.6094"/><rect fill="#FFFFFF" height="10" style="stroke:#000000;stroke-width:1;" width="15" x="768.7068" y="190.6094"/><rect fill="#FFFFFF" height="2" style="stroke:#000000;stroke-width:1;" width="4" x="766.7068" y="192.6094"/><rect fill="#FFFFFF" height="2" style="stroke:#000000;stroke-width:1;" width="4" x="766.7068" y="196.6094"/><text fill="#000000" font-family="Verdana" font-size="14" lengthAdjust="spacing" textLength="127.1416" x="636.5652" y="218.6045">Web App Instance</text><text fill="#000000" font-family="Verdana" font-size="14" lengthAdjust="spacing" textLength="82.3867" x="636.5652" y="234.9014">(React SPA)</text></g><!--entity stripe--><g class="entity" data-qualified-name="External Payment Provider.stripe" data-source-line="39" id="ent0008"><rect fill="#FFFFFF" height="46.2969" rx="2.5" ry="2.5" style="stroke:#000000;stroke-width:1;" width="108.1201" x="1159.0752" y="851.7894"/><rect fill="#FFFFFF" height="10" style="stroke:#000000;stroke-width:1;" width="15" x="1247.1954" y="856.7894"/><rect fill="#FFFFFF" height="2" style="stroke:#000000;stroke-width:1;" width="4" x="1245.1954" y="858.7894"/><rect fill="#FFFFFF" height="2" style="stroke:#000000;stroke-width:1;" width="4" x="1245.1954" y="862.7894"/><text fill="#000000" font-family="Verdana" font-size="14" lengthAdjust="spacing" textLength="68.1201" x="1174.0752" y="884.7845">Stripe API</text></g><!--entity React Static Files--><g class="entity" data-qualified-name="Cloud Infrastructure .AWS..CDN.React Static Files" data-source-line="46" id="ent0011"><rect fill="#FFFFFF" height="39.2969" rx="2.5" ry="2.5" style="stroke:#000000;stroke-width:1;" width="150.7773" x="157.7452" y="452.1994"/><polygon fill="#FFFFFF" points="291.5226,457.1994,291.5226,471.1994,303.5226,471.1994,303.5226,463.1994,297.5226,457.1994,291.5226,457.1994" style="stroke:#000000;stroke-width:1;"/><line style="stroke:#000000;stroke-width:1;" x1="297.5226" x2="297.5226" y1="457.1994" y2="463.1994"/><line style="stroke:#000000;stroke-width:1;" x1="303.5226" x2="297.5226" y1="463.1994" y2="463.1994"/><text fill="#000000" font-family="Verdana" font-size="14" lengthAdjust="spacing" textLength="120.7773" x="167.7452" y="478.1945">React Static Files</text></g><!--entity nginx--><g class="entity" data-qualified-name="Cloud Infrastructure .AWS..LB.nginx" data-source-line="50" id="ent0013"><rect fill="#FFFFFF" height="46.2969" rx="2.5" ry="2.5" style="stroke:#000000;stroke-width:1;" width="146.7021" x="603.7852" y="448.6994"/><rect fill="#FFFFFF" height="10" style="stroke:#000000;stroke-width:1;" width="15" x="730.4874" y="453.6994"/><rect fill="#FFFFFF" height="2" style="stroke:#000000;stroke-width:1;" width="4" x="728.4874" y="455.6994"/><rect fill="#FFFFFF" height="2" style="stroke:#000000;stroke-width:1;" width="4" x="728.4874" y="459.6994"/><text fill="#000000" font-family="Verdana" font-size="14" lengthAdjust="spacing" textLength="106.7021" x="618.7852" y="481.6945">Nginx Gateway</text></g><!--entity user_service--><g class="entity" data-qualified-name="Cloud Infrastructure .AWS..K8s.Pod.user_service" data-source-line="56" id="ent0016"><rect fill="#FFFFFF" height="46.2969" rx="2.5" ry="2.5" style="stroke:#000000;stroke-width:1;" width="128.1016" x="510.0852" y="660.4994"/><rect fill="#FFFFFF" height="10" style="stroke:#000000;stroke-width:1;" width="15" x="618.1868" y="665.4994"/><rect fill="#FFFFFF" height="2" style="stroke:#000000;stroke-width:1;" width="4" x="616.1868" y="667.4994"/><rect fill="#FFFFFF" height="2" style="stroke:#000000;stroke-width:1;" width="4" x="616.1868" y="671.4994"/><text fill="#000000" font-family="Verdana" font-size="14" lengthAdjust="spacing" textLength="88.1016" x="525.0852" y="693.4945">User Service</text></g><!--entity payment_service--><g class="entity" data-qualified-name="Cloud Infrastructure .AWS..K8s.Pod.payment_service" data-source-line="57" id="ent0017"><rect fill="#FFFFFF" height="46.2969" rx="2.5" ry="2.5" style="stroke:#000000;stroke-width:1;" width="158.1113" x="848.0752" y="660.4994"/><rect fill="#FFFFFF" height="10" style="stroke:#000000;stroke-width:1;" width="15" x="986.1866" y="665.4994"/><rect fill="#FFFFFF" height="2" style="stroke:#000000;stroke-width:1;" width="4" x="984.1866" y="667.4994"/><rect fill="#FFFFFF" height="2" style="stroke:#000000;stroke-width:1;" width="4" x="984.1866" y="671.4994"/><text fill="#000000" font-family="Verdana" font-size="14" lengthAdjust="spacing" textLength="118.1113" x="863.0752" y="693.4945">Payment Service</text></g><!--entity driver_service--><g class="entity" data-qualified-name="Cloud Infrastructure .AWS..K8s.Pod.driver_service" data-source-line="58" id="ent0018"><rect fill="#FFFFFF" height="46.2969" rx="2.5" ry="2.5" style="stroke:#000000;stroke-width:1;" width="139.2715" x="673.4952" y="660.4994"/><rect fill="#FFFFFF" height="10" style="stroke:#000000;stroke-width:1;" width="15" x="792.7667" y="665.4994"/><rect fill="#FFFFFF" height="2" style="stroke:#000000;stroke-width:1;" width="4" x="790.7667" y="667.4994"/><rect fill="#FFFFFF" height="2" style="stroke:#000000;stroke-width:1;" width="4" x="790.7667" y="671.4994"/><text fill="#000000" font-family="Verdana" font-size="14" lengthAdjust="spacing" textLength="99.2715" x="688.4952" y="693.4945">Driver Service</text></g><!--entity notification_service--><g class="entity" data-qualified-name="Cloud Infrastructure .AWS..K8s.Pod.notification_service" data-source-line="59" id="ent0019"><rect fill="#FFFFFF" height="46.2969" rx="2.5" ry="2.5" style="stroke:#000000;stroke-width:1;" width="176.5205" x="298.8752" y="660.4994"/><rect fill="#FFFFFF" height="10" style="stroke:#000000;stroke-width:1;" width="15" x="455.3957" y="665.4994"/><rect fill="#FFFFFF" height="2" style="stroke:#000000;stroke-width:1;" width="4" x="453.3957" y="667.4994"/><rect fill="#FFFFFF" height="2" style="stroke:#000000;stroke-width:1;" width="4" x="453.3957" y="671.4994"/><text fill="#000000" font-family="Verdana" font-size="14" lengthAdjust="spacing" textLength="136.5205" x="313.8752" y="693.4945">Notification Service</text></g><!--entity kafka--><g class="entity" data-qualified-name="Cloud Infrastructure .AWS..KafkaCluster.kafka" data-source-line="65" id="ent0021"><rect fill="#FFFFFF" height="46.2969" rx="2.5" ry="2.5" style="stroke:#000000;stroke-width:1;" width="121.416" x="554.4252" y="851.7894"/><rect fill="#FFFFFF" height="10" style="stroke:#000000;stroke-width:1;" width="15" x="655.8413" y="856.7894"/><rect fill="#FFFFFF" height="2" style="stroke:#000000;stroke-width:1;" width="4" x="653.8413" y="858.7894"/><rect fill="#FFFFFF" height="2" style="stroke:#000000;stroke-width:1;" width="4" x="653.8413" y="862.7894"/><text fill="#000000" font-family="Verdana" font-size="14" lengthAdjust="spacing" textLength="81.416" x="569.4252" y="884.7845">Kafka Topic</text></g><!--entity redis--><g class="entity" data-qualified-name="Cloud Infrastructure .AWS..RedisNode.redis" data-source-line="69" id="ent0023"><rect fill="#FFFFFF" height="46.2969" rx="2.5" ry="2.5" style="stroke:#000000;stroke-width:1;" width="126.3994" x="130.9352" y="851.7894"/><rect fill="#FFFFFF" height="10" style="stroke:#000000;stroke-width:1;" width="15" x="237.3347" y="856.7894"/><rect fill="#FFFFFF" height="2" style="stroke:#000000;stroke-width:1;" width="4" x="235.3347" y="858.7894"/><rect fill="#FFFFFF" height="2" style="stroke:#000000;stroke-width:1;" width="4" x="235.3347" y="862.7894"/><text fill="#000000" font-family="Verdana" font-size="14" lengthAdjust="spacing" textLength="86.3994" x="145.9352" y="884.7845">Redis Cache</text></g><!--entity postgres--><g class="entity" data-qualified-name="Cloud Infrastructure .AWS..DBServer.postgres" data-source-line="73" id="ent0025"><rect fill="#FFFFFF" height="46.2969" rx="2.5" ry="2.5" style="stroke:#000000;stroke-width:1;" width="120.7529" x="909.7552" y="851.7894"/><rect fill="#FFFFFF" height="10" style="stroke:#000000;stroke-width:1;" width="15" x="1010.5082" y="856.7894"/><rect fill="#FFFFFF" height="2" style="stroke:#000000;stroke-width:1;" width="4" x="1008.5082" y="858.7894"/><rect fill="#FFFFFF" height="2" style="stroke:#000000;stroke-width:1;" width="4" x="1008.5082" y="862.7894"/><text fill="#000000" font-family="Verdana" font-size="14" lengthAdjust="spacing" textLength="80.7529" x="924.7552" y="884.7845">PostgreSQL</text></g><!--link mobile_app to nginx--><g class="link" data-entity-1="ent0003" data-entity-2="ent0013" data-link-type="dependency" data-source-line="80" id="lnk26"><path d="M444.1852,248.4894 C471.6952,267.8894 507.0452,294.1694 536.1352,320.1994 C583.1252,362.2394 628.2515,413.1145 654.3015,443.6545" fill="none" id="mobile_app-to-nginx" style="stroke:#000000;stroke-width:1;"/><polygon fill="#000000" points="658.1952,448.2194,655.3978,438.7761,654.9504,444.4153,649.3113,443.9679,658.1952,448.2194" style="stroke:#000000;stroke-width:1;"/><text fill="#000000" font-family="Verdana" font-size="13" lengthAdjust="spacing" textLength="88.0674" x="553.5852" y="333.2663">HTTPS (JSON)</text></g><!--link Computer to CDN--><g class="link" data-entity-1="ent0004" data-entity-2="ent0010" data-link-type="dependency" data-source-line="81" id="lnk27"><path d="M538.0809,262.4164 C538.0311,262.577 537.9811,262.7377 537.9307,262.8985 C537.83,263.2201 537.7281,263.542 537.6249,263.8643 C536.7995,266.4424 535.8952,269.041 534.9045,271.6343 C532.923,276.821 530.5959,281.9867 527.8638,286.9259 C522.3996,296.8044 515.3152,305.7769 506.1352,312.1994 C492.0052,322.0894 363.0152,307.6894 351.1352,320.1994 C339.7852,332.1494 334.2034,347.3413 332.2379,363.4556 C331.2552,371.5128 331.1765,379.8006 331.733,388.0291 C332.0113,392.1434 332.4483,396.2428 333.0105,400.2912 C333.1511,401.3033 333.2994,402.3122 333.4551,403.3173 C333.494,403.5686 332.5925,397.8939 332.6324,398.1447" fill="none" id="Computer-to-CDN" style="stroke:#000000;stroke-width:1;"/><polygon fill="#000000" points="333.5732,404.0705,336.1125,394.5546,332.7892,399.1323,328.2114,395.8091,333.5732,404.0705" style="stroke:#000000;stroke-width:1;"/><text fill="#000000" font-family="Verdana" font-size="13" lengthAdjust="spacing" textLength="179.7275" x="352.1352" y="333.2663">HTTPS (Fetch Static Assets)</text></g><!--link web_app to nginx--><g class="link" data-entity-1="ent0006" data-entity-2="ent0013" data-link-type="dependency" data-source-line="82" id="lnk28"><path d="M701.7252,248.6694 C696.0152,300.2794 685.2952,397.1358 680.2752,442.4958" fill="none" id="web_app-to-nginx" style="stroke:#000000;stroke-width:1;"/><polygon fill="#000000" points="679.6152,448.4594,684.581,439.954,680.1652,443.4897,676.6295,439.074,679.6152,448.4594" style="stroke:#000000;stroke-width:1;"/><text fill="#000000" font-family="Verdana" font-size="13" lengthAdjust="spacing" textLength="111.7632" x="694.6452" y="333.2663">HTTPS (API Calls)</text></g><!--link nginx to user_service--><g class="link" data-entity-1="ent0013" data-entity-2="ent0016" data-link-type="dependency" data-source-line="85" id="lnk29"><path d="M666.1152,495.2994 C646.3352,535.5694 607.7095,614.2635 587.8795,654.6535" fill="none" id="nginx-to-user_service" style="stroke:#000000;stroke-width:1;"/><polygon fill="#000000" points="585.2352,660.0394,592.7922,653.7234,587.4388,655.5511,585.6111,650.1977,585.2352,660.0394" style="stroke:#000000;stroke-width:1;"/><text fill="#000000" font-family="Verdana" font-size="13" lengthAdjust="spacing" textLength="33.4395" x="644.8152" y="552.5663">REST</text></g><!--link nginx to payment_service--><g class="link" data-entity-1="ent0013" data-entity-2="ent0017" data-link-type="dependency" data-source-line="86" id="lnk30"><path d="M723.7152,495.3494 C755.5352,511.9594 797.6552,536.4894 830.1352,564.4994 C863.7052,593.4394 891.3408,629.9657 908.8708,655.2957" fill="none" id="nginx-to-payment_service" style="stroke:#000000;stroke-width:1;"/><polygon fill="#000000" points="912.2852,660.2294,910.4527,650.5525,909.4399,656.1179,903.8744,655.1051,912.2852,660.2294" style="stroke:#000000;stroke-width:1;"/><text fill="#000000" font-family="Verdana" font-size="13" lengthAdjust="spacing" textLength="33.4395" x="820.0052" y="552.5663">REST</text></g><!--link nginx to driver_service--><g class="link" data-entity-1="ent0013" data-entity-2="ent0018" data-link-type="dependency" data-source-line="87" id="lnk31"><path d="M684.1952,495.2994 C696.8652,535.5694 721.5142,613.9261 734.2242,654.3161" fill="none" id="nginx-to-driver_service" style="stroke:#000000;stroke-width:1;"/><polygon fill="#000000" points="736.0252,660.0394,737.1392,650.2537,734.5244,655.2699,729.5082,652.6551,736.0252,660.0394" style="stroke:#000000;stroke-width:1;"/><text fill="#000000" font-family="Verdana" font-size="13" lengthAdjust="spacing" textLength="33.4395" x="703.2852" y="552.5663">REST</text></g><!--link notification_service to nginx--><g class="link" data-entity-1="ent0019" data-entity-2="ent0013" data-link-type="dependency" data-source-line="88" id="lnk32"><path d="M402.8352,660.2794 C421.7252,634.6094 455.4952,592.4694 492.1352,564.4994 C530.4552,535.2394 574.0467,513.7607 612.0367,497.7407" fill="none" id="notification_service-to-nginx" style="stroke:#000000;stroke-width:1;"/><polygon fill="#000000" points="617.5652,495.4094,607.7182,495.2207,612.9581,497.3522,610.8266,502.5921,617.5652,495.4094" style="stroke:#000000;stroke-width:1;"/><text fill="#000000" font-family="Verdana" font-size="13" lengthAdjust="spacing" textLength="33.4395" x="525.6552" y="552.5663">REST</text></g><!--link user_service to postgres--><g class="link" data-entity-1="ent0016" data-entity-2="ent0025" data-link-type="dependency" data-source-line="91" id="lnk33"><path d="M592.7252,707.2294 C607.8652,723.7694 630.8052,744.9694 656.1352,754.7894 C682.0452,764.8394 882.3052,748.4994 906.1352,762.7894 C938.5952,782.2594 954.3978,819.1556 962.5478,845.5956" fill="none" id="user_service-to-postgres" style="stroke:#000000;stroke-width:1;"/><polygon fill="#000000" points="964.3152,851.3294,965.4866,841.5504,962.8424,846.5512,957.8416,843.907,964.3152,851.3294" style="stroke:#000000;stroke-width:1;"/><text fill="#000000" font-family="Verdana" font-size="13" lengthAdjust="spacing" textLength="24.8574" x="925.7352" y="775.8563">TCP</text></g><!--link payment_service to postgres--><g class="link" data-entity-1="ent0017" data-entity-2="ent0025" data-link-type="dependency" data-source-line="92" id="lnk34"><path d="M978.8252,707.2594 C1001.3652,720.0494 1025.4852,738.4194 1038.1352,762.7894 C1054.5952,794.5194 1029.3489,825.4663 1004.1489,847.5363" fill="none" id="payment_service-to-postgres" style="stroke:#000000;stroke-width:1;"/><polygon fill="#000000" points="999.6352,851.4894,1009.0411,848.5689,1003.3966,848.1952,1003.7704,842.5507,999.6352,851.4894" style="stroke:#000000;stroke-width:1;"/><text fill="#000000" font-family="Verdana" font-size="13" lengthAdjust="spacing" textLength="24.8574" x="1043.7152" y="775.8563">TCP</text></g><!--link driver_service to postgres--><g class="link" data-entity-1="ent0018" data-entity-2="ent0025" data-link-type="dependency" data-source-line="93" id="lnk35"><path d="M763.2152,707.0694 C779.4552,723.5194 803.8752,744.6894 830.1352,754.7894 C844.8852,760.4694 961.2752,751.3094 972.1352,762.7894 C994.2752,786.2194 988.4876,820.6596 980.5376,845.7496" fill="none" id="driver_service-to-postgres" style="stroke:#000000;stroke-width:1;"/><polygon fill="#000000" points="978.7252,851.4694,985.2569,844.098,980.2355,846.7029,977.6306,841.6815,978.7252,851.4694" style="stroke:#000000;stroke-width:1;"/><text fill="#000000" font-family="Verdana" font-size="13" lengthAdjust="spacing" textLength="24.8574" x="982.5152" y="775.8563">TCP</text></g><!--link notification_service to postgres--><g class="link" data-entity-1="ent0019" data-entity-2="ent0025" data-link-type="dependency" data-source-line="94" id="lnk36"><path d="M411.7252,707.0294 C431.7552,723.6894 461.6152,745.1494 492.1352,754.7894 C529.0152,766.4394 804.0052,748.9794 840.1352,762.7894 C864.6852,772.1794 913.1552,817.5144 943.3652,847.1944" fill="none" id="notification_service-to-postgres" style="stroke:#000000;stroke-width:1;"/><polygon fill="#000000" points="947.6452,851.3994,944.0285,842.2386,944.0786,847.8953,938.4219,847.9453,947.6452,851.3994" style="stroke:#000000;stroke-width:1;"/><text fill="#000000" font-family="Verdana" font-size="13" lengthAdjust="spacing" textLength="24.8574" x="868.2852" y="775.8563">TCP</text></g><!--link user_service to redis--><g class="link" data-entity-1="ent0016" data-entity-2="ent0023" data-link-type="dependency" data-source-line="97" id="lnk37"><path d="M555.8452,707.2894 C540.9452,723.8594 518.2952,745.0694 493.1352,754.7894 C475.7752,761.4994 171.1452,749.4694 158.1352,762.7894 C134.6152,786.8794 153.1573,821.6529 171.6173,846.5029" fill="none" id="user_service-to-redis" style="stroke:#000000;stroke-width:1;stroke-dasharray:7,7;"/><polygon fill="#000000" points="175.1952,851.3194,173.0393,841.7094,172.2136,847.3057,166.6173,846.48,175.1952,851.3194" style="stroke:#000000;stroke-width:1;"/><text fill="#000000" font-family="Verdana" font-size="13" lengthAdjust="spacing" textLength="24.8574" x="159.1352" y="775.8563">TCP</text></g><!--link payment_service to redis--><g class="link" data-entity-1="ent0017" data-entity-2="ent0023" data-link-type="dependency" data-source-line="98" id="lnk38"><path d="M904.7452,707.0694 C886.4252,723.7494 858.9252,745.2194 830.1352,754.7894 C777.0952,772.4294 379.5252,743.3094 327.1352,762.7894 C278.6252,780.8294 239.1869,820.2684 215.9469,847.1784" fill="none" id="payment_service-to-redis" style="stroke:#000000;stroke-width:1;stroke-dasharray:7,7;"/><polygon fill="#000000" points="212.0252,851.7194,220.9351,847.5224,215.2933,847.9352,214.8804,842.2935,212.0252,851.7194" style="stroke:#000000;stroke-width:1;"/><text fill="#000000" font-family="Verdana" font-size="13" lengthAdjust="spacing" textLength="24.8574" x="328.1352" y="775.8563">TCP</text></g><!--link driver_service to redis--><g class="link" data-entity-1="ent0018" data-entity-2="ent0023" data-link-type="dependency" data-source-line="99" id="lnk39"><path d="M723.4952,707.0094 C707.3152,723.6594 682.7552,745.1194 656.1352,754.7894 C633.5752,762.9894 243.0552,748.0194 224.1352,762.7894 C197.5052,783.5794 192.9699,819.3594 192.9499,845.3594" fill="none" id="driver_service-to-redis" style="stroke:#000000;stroke-width:1;stroke-dasharray:7,7;"/><polygon fill="#000000" points="192.9452,851.3594,196.9452,842.3594,192.9452,846.3594,188.9452,842.3594,192.9452,851.3594" style="stroke:#000000;stroke-width:1;"/><text fill="#000000" font-family="Verdana" font-size="13" lengthAdjust="spacing" textLength="24.8574" x="225.1352" y="775.8563">TCP</text></g><!--link notification_service to redis--><g class="link" data-entity-1="ent0019" data-entity-2="ent0023" data-link-type="dependency" data-source-line="100" id="lnk40"><path d="M298.4252,696.1694 C221.0352,708.2594 117.2952,730.0994 92.1352,762.7894 C67.1352,795.2794 105.6277,826.5818 143.3577,848.3418" fill="none" id="notification_service-to-redis" style="stroke:#000000;stroke-width:1;stroke-dasharray:7,7;"/><polygon fill="#000000" points="148.5552,851.3394,142.7573,843.378,144.2239,848.8414,138.7605,850.308,148.5552,851.3394" style="stroke:#000000;stroke-width:1;"/><text fill="#000000" font-family="Verdana" font-size="13" lengthAdjust="spacing" textLength="24.8574" x="93.1352" y="775.8563">TCP</text></g><!--link user_service to kafka--><g class="link" data-entity-1="ent0016" data-entity-2="ent0021" data-link-type="dependency" data-source-line="103" id="lnk41"><path d="M578.9952,707.0994 C586.8952,743.5294 601.1261,809.2351 609.0061,845.6451" fill="none" id="user_service-to-kafka" style="stroke:#000000;stroke-width:1;"/><polygon fill="#000000" points="610.2752,851.5094,612.281,841.8669,609.2176,846.6225,604.462,843.5591,610.2752,851.5094" style="stroke:#000000;stroke-width:1;"/><text fill="#000000" font-family="Verdana" font-size="13" lengthAdjust="spacing" textLength="46.5664" x="595.6352" y="775.8563">Publish</text></g><!--link payment_service to kafka--><g class="link" data-entity-1="ent0017" data-entity-2="ent0021" data-link-type="dependency" data-source-line="104" id="lnk42"><path d="M902.6852,707.0294 C884.1152,722.7994 857.2352,743.1094 830.1352,754.7894 C812.6852,762.3194 805.7852,755.7494 788.1352,762.7894 C732.4352,785.0194 680.0643,822.2467 647.3943,847.7567" fill="none" id="payment_service-to-kafka" style="stroke:#000000;stroke-width:1;"/><polygon fill="#000000" points="642.6652,851.4494,652.2206,849.0631,646.6061,848.3722,647.2971,842.7577,642.6652,851.4494" style="stroke:#000000;stroke-width:1;"/><text fill="#000000" font-family="Verdana" font-size="13" lengthAdjust="spacing" textLength="46.5664" x="789.1352" y="775.8563">Publish</text></g><!--link driver_service to kafka--><g class="link" data-entity-1="ent0018" data-entity-2="ent0021" data-link-type="dependency" data-source-line="105" id="lnk43"><path d="M727.9452,707.0994 C703.3152,743.5294 658.2861,810.129 633.6661,846.539" fill="none" id="driver_service-to-kafka" style="stroke:#000000;stroke-width:1;"/><polygon fill="#000000" points="630.3052,851.5094,638.6601,846.2944,633.106,847.3674,632.033,841.8133,630.3052,851.5094" style="stroke:#000000;stroke-width:1;"/><text fill="#000000" font-family="Verdana" font-size="13" lengthAdjust="spacing" textLength="46.5664" x="687.7952" y="775.8563">Publish</text></g><!--link notification_service to kafka--><g class="link" data-entity-1="ent0019" data-entity-2="ent0021" data-link-type="dependency" data-source-line="106" id="lnk44"><path d="M414.1852,707.0994 C458.0652,743.5294 539.6487,811.267 583.5087,847.677" fill="none" id="notification_service-to-kafka" style="stroke:#000000;stroke-width:1;"/><polygon fill="#000000" points="588.1252,851.5094,583.7553,842.6831,584.2781,848.3157,578.6455,848.8385,588.1252,851.5094" style="stroke:#000000;stroke-width:1;"/><text fill="#000000" font-family="Verdana" font-size="13" lengthAdjust="spacing" textLength="63.8701" x="502.1352" y="775.8563">Subscribe</text></g><!--link kafka to notification_service--><g class="link" data-entity-1="ent0021" data-entity-2="ent0019" data-link-type="dependency" data-source-line="109" id="lnk45"><path d="M554.0052,869.5894 C495.3252,861.7794 409.6652,840.0694 368.1352,779.7894 C353.2252,758.1494 360.8568,732.9233 371.1868,712.3133" fill="none" id="kafka-to-notification_service" style="stroke:#000000;stroke-width:1;stroke-dasharray:7,7;"/><polygon fill="#000000" points="373.8752,706.9494,366.2665,713.203,371.6348,711.4193,373.4185,716.7876,373.8752,706.9494" style="stroke:#000000;stroke-width:1;"/><text fill="#000000" font-family="Verdana" font-size="13" lengthAdjust="spacing" textLength="109.0908" x="369.1352" y="775.8563">Consume Events</text></g><!--link payment_service to stripe--><g class="link" data-entity-1="ent0017" data-entity-2="ent0008" data-link-type="dependency" data-source-line="112" id="lnk46"><path d="M976.5252,707.1994 C1006.4952,721.6594 1045.0152,741.6194 1077.1352,762.7894 C1118.6352,790.1494 1157.9641,823.7171 1184.3041,847.4071" fill="none" id="payment_service-to-stripe" style="stroke:#000000;stroke-width:1;"/><polygon fill="#000000" points="1188.7652,851.4194,1184.7484,842.4269,1185.0476,848.0758,1179.3987,848.375,1188.7652,851.4194" style="stroke:#000000;stroke-width:1;"/><text fill="#000000" font-family="Verdana" font-size="13" lengthAdjust="spacing" textLength="79.46" x="1101.7152" y="775.8563">HTTPS (TLS)</text></g><?plantuml-src bLPDSzCm4BtxLuWm0ycXSE70C4ndyj5280sc3lHGc8vYRsDDPCb8Sj8Cq__EIh9JotKEvARzVFlqjCuBaqC1fEIKYIZIMoPAgcX1XCo0_8q8cT1qkr6o4jbKSgd8JSuC98NSWdLAbO7oZXbLsmclh7cibDnxwyjtxXSzjekdiYYb065ET-WKdt0CwXJXiifw2opO9ZVJ0nKz29qvg9DHGzTKm_zZCSnm83_MeCYuB3bBgM5Ia1cKN1uAEzwCqOtjCOppWqO_9pyPx4THz9gSdPsHAMSsQiMm0fuZH_hWXyPZKb1boXnP6f2F7pFOiHJEpmdLtXDRZqFynENjbLmp18HOo5neGqKAlyIGVKlUZaMc9Cj6lss1meNTqRAqGxHwJh5KPK1rEpPsry_7ty2QJF2IjO-61qWhDpo87LDIsEansIO446rU1zyrqDIG91vxT7jOEsY4F5fudgYB1smlaBxae0qKkiNMqHLJptciv8vb3IxlhA6qW2H6iHAvYkUkgtR7fuPJ9wwvk5SKNLLgAWMkgLVTeDS_7Dyaem5sEj8qbS8u7G1dEr07iWIpbsfBtXBBH09gPu5QZcVBcYsyNNPlAHdKp1YKLKekySxqmD5oBB-GD4F9SikamffpiL6WjIkuc3ndVxbXue5yeWRszE3c5jRI5Ar7zxUD55JQrC9i6dwjKEm23EYZUzYMlbNooBN_-bxN_NrcBBD1RGWWUR4Z3wWsXwX2mvtsXkVXpIMtCqflEvqqKvRy82TpfjCfIucNq4pLJXGjHv3-6B9unRAC8yqeYrUuU0mDUBp2Mw8Ri4zeQn-Uvz8JH--tj27N4_QdWWh8hVEGbInPwg1ixJaKn3LaJ0Vbd6NPBFDWnZgOfhaVJTbpM6_Mx4QlLDnZYk7wEVWxdargiozzNAItiTG6bPXyN_WByaSTlkbhu8v5dRFIFsXqr1lHoCxRYfwM5eQUUzsI3-JpQXKdPFWb-ROSHSSzPIFiWphwBy6aUVEInbg3qQEetZHzzN0j836SQxUgwmTZKTLIq95FiAbjmMA5wujarV9snFay85JYqTyZim2eYq9iDI2BhRciA43aGDGNW7chQHnrCVM4T53rH9n4s8aBCJgrXG3Vl3dtqZk1hkllGEkwUt5rWq9G_ZKoiNdEd7jZc1HNQyvqtajTDwQ7ksx8IVAQmAHQwrInDLYeS_o8gBCcRCSe-Uusml3YWHObXr7aq-oKlPK_u58NkiB_UHSxHAzjqUQxsJkI_nm-lOVL8Xdz0m00?></g></svg>