<?plantuml 1.2026.0?><svg xmlns="http://www.w3.org/2000/svg" xmlns:xlink="http://www.w3.org/1999/xlink" contentStyleType="text/css" data-diagram-type="SEQUENCE" height="1801px" preserveAspectRatio="none" style="width:1860px;height:1801px;background:#FFFFFF;" version="1.1" viewBox="0 0 1860 1801" width="1860px" zoomAndPan="magnify"><title>Uber Application Sequence Diagram - Ride Booking Process</title><defs/><g><text fill="#000000" font-family="Verdana" font-size="22" font-weight="bold" lengthAdjust="spacing" textLength="740.1582" x="558.8669" y="35.4209">Uber Application Sequence Diagram - Ride Booking Process</text><g class="participant-lifeline" data-entity-uid="part1" data-qualified-name="Customer" id="part1-lifeline"><g><title>Customer</title><rect fill="#000000" fill-opacity="0.00000" height="1590.9063" width="8" x="43.002" y="128.9063"/><line style="stroke:#000000;stroke-width:1;stroke-dasharray:5,5;" x1="47" x2="47" y1="128.9063" y2="1719.8125"/></g></g><g class="participant-lifeline" data-entity-uid="part2" data-qualified-name="mobile_app" id="part2-lifeline"><g><title>Mobile App</title><rect fill="#000000" fill-opacity="0.00000" height="1590.9063" width="8" x="254.1372" y="128.9063"/><line style="stroke:#000000;stroke-width:1;stroke-dasharray:5,5;" x1="257.2749" x2="257.2749" y1="128.9063" y2="1719.8125"/></g></g><g class="participant-lifeline" data-entity-uid="part3" data-qualified-name="api_gateway" id="part3-lifeline"><g><title>API Gateway</title><rect fill="#000000" fill-opacity="0.00000" height="1590.9063" width="8" x="431.3379" y="128.9063"/><line style="stroke:#000000;stroke-width:1;stroke-dasharray:5,5;" x1="435.1162" x2="435.1162" y1="128.9063" y2="1719.8125"/></g></g><g class="participant-lifeline" data-entity-uid="part4" data-qualified-name="user_service" id="part4-lifeline"><g><title>User Service</title><rect fill="#000000" fill-opacity="0.00000" height="1590.9063" width="8" x="617.9204" y="128.9063"/><line style="stroke:#000000;stroke-width:1;stroke-dasharray:5,5;" x1="621.8696" x2="621.8696" y1="128.9063" y2="1719.8125"/></g></g><g class="participant-lifeline" data-entity-uid="part5" data-qualified-name="driver_service" id="part5-lifeline"><g><title>Driver Service</title><rect fill="#000000" fill-opacity="0.00000" height="1590.9063" width="8" x="755.6069" y="128.9063"/><line style="stroke:#000000;stroke-width:1;stroke-dasharray:5,5;" x1="758.9712" x2="758.9712" y1="128.9063" y2="1719.8125"/></g></g><g class="participant-lifeline" data-entity-uid="part6" data-qualified-name="payment_service" id="part6-lifeline"><g><title>Payment Service</title><rect fill="#000000" fill-opacity="0.00000" height="1590.9063" width="8" x="908.2983" y="128.9063"/><line style="stroke:#000000;stroke-width:1;stroke-dasharray:5,5;" x1="912.2427" x2="912.2427" y1="128.9063" y2="1719.8125"/></g></g><g class="participant-lifeline" data-entity-uid="part7" data-qualified-name="notification_service" id="part7-lifeline"><g><title>Notification Service</title><rect fill="#000000" fill-opacity="0.00000" height="1590.9063" width="8" x="1079.6143" y="128.9063"/><line style="stroke:#000000;stroke-width:1;stroke-dasharray:5,5;" x1="1083.354" x2="1083.354" y1="128.9063" y2="1719.8125"/></g></g><g class="participant-lifeline" data-entity-uid="part8" data-qualified-name="database" id="part8-lifeline"><g><title>Database</title><rect fill="#000000" fill-opacity="0.00000" height="1590.9063" width="8" x="1211.2749" y="128.9063"/><line style="stroke:#000000;stroke-width:1;stroke-dasharray:5,5;" x1="1214.8745" x2="1214.8745" y1="128.9063" y2="1719.8125"/></g></g><g class="participant-lifeline" data-entity-uid="part9" data-qualified-name="cache" id="part9-lifeline"><g><title>Cache</title><rect fill="#000000" fill-opacity="0.00000" height="1590.9063" width="8" x="1296.4443" y="128.9063"/><line style="stroke:#000000;stroke-width:1;stroke-dasharray:5,5;" x1="1299.6753" x2="1299.6753" y1="128.9063" y2="1719.8125"/></g></g><g class="participant-lifeline" data-entity-uid="part10" data-qualified-name="message_queue" id="part10-lifeline"><g><title>Message Queue</title><rect fill="#000000" fill-opacity="0.00000" height="1590.9063" width="8" x="1418.1143" y="128.9063"/><line style="stroke:#000000;stroke-width:1;stroke-dasharray:5,5;" x1="1421.2134" x2="1421.2134" y1="128.9063" y2="1719.8125"/></g></g><g class="participant-lifeline" data-entity-uid="part11" data-qualified-name="external_payment_gateway" id="part11-lifeline"><g><title>External Payment Gateway</title><rect fill="#000000" fill-opacity="0.00000" height="1590.9063" width="8" x="1613.5132" y="128.9063"/><line style="stroke:#000000;stroke-width:1;stroke-dasharray:5,5;" x1="1617.0151" x2="1617.0151" y1="128.9063" y2="1719.8125"/></g></g><g class="participant-lifeline" data-entity-uid="part12" data-qualified-name="Driver App" id="part12-lifeline"><g><title>Driver App</title><rect fill="#000000" fill-opacity="0.00000" height="1590.9063" width="8" x="1790.4517" y="128.9063"/><line style="stroke:#000000;stroke-width:1;stroke-dasharray:5,5;" x1="1794.0112" x2="1794.0112" y1="128.9063" y2="1719.8125"/></g></g><g class="participant participant-head" data-entity-uid="part1" data-qualified-name="Customer" id="part1-head"><text fill="#000000" font-family="Verdana" font-size="14" lengthAdjust="spacing" textLength="68.0039" x="10" y="125.6045">Customer</text><ellipse cx="47.002" cy="60.6094" fill="#FFFFFF" rx="8" ry="8" style="stroke:#000000;stroke-width:1;"/><path d="M47.002,68.6094 L47.002,95.6094 M34.002,76.6094 L60.002,76.6094 M47.002,95.6094 L34.002,110.6094 M47.002,95.6094 L60.002,110.6094" fill="none" style="stroke:#000000;stroke-width:1;"/></g><g class="participant participant-tail" data-entity-uid="part1" data-qualified-name="Customer" id="part1-tail"><text fill="#000000" font-family="Verdana" font-size="14" lengthAdjust="spacing" textLength="68.0039" x="10" y="1731.8076">Customer</text><ellipse cx="47.002" cy="1744.1094" fill="#FFFFFF" rx="8" ry="8" style="stroke:#000000;stroke-width:1;"/><path d="M47.002,1752.1094 L47.002,1779.1094 M34.002,1760.1094 L60.002,1760.1094 M47.002,1779.1094 L34.002,1794.1094 M47.002,1779.1094 L60.002,1794.1094" fill="none" style="stroke:#000000;stroke-width:1;"/></g><g class="participant participant-head" data-entity-uid="part2" data-qualified-name="mobile_app" id="part2-head"><rect fill="#FFFFFF" height="30.2969" rx="2.5" ry="2.5" style="stroke:#000000;stroke-width:1;" width="91.7246" x="212.2749" y="97.6094"/><text fill="#000000" font-family="Verdana" font-size="14" lengthAdjust="spacing" textLength="77.7246" x="219.2749" y="117.6045">Mobile App</text></g><g class="participant participant-tail" data-entity-uid="part2" data-qualified-name="mobile_app" id="part2-tail"><rect fill="#FFFFFF" height="30.2969" rx="2.5" ry="2.5" style="stroke:#000000;stroke-width:1;" width="91.7246" x="212.2749" y="1718.8125"/><text fill="#000000" font-family="Verdana" font-size="14" lengthAdjust="spacing" textLength="77.7246" x="219.2749" y="1738.8076">Mobile App</text></g><g class="participant participant-head" data-entity-uid="part3" data-qualified-name="api_gateway" id="part3-head"><rect fill="#FFFFFF" height="30.2969" rx="2.5" ry="2.5" style="stroke:#000000;stroke-width:1;" width="102.4434" x="384.1162" y="97.6094"/><text fill="#000000" font-family="Verdana" font-size="14" lengthAdjust="spacing" textLength="88.4434" x="391.1162" y="117.6045">API Gateway</text></g><g class="participant participant-tail" data-entity-uid="part3" data-qualified-name="api_gateway" id="part3-tail"><rect fill="#FFFFFF" height="30.2969" rx="2.5" ry="2.5" style="stroke:#000000;stroke-width:1;" width="102.4434" x="384.1162" y="1718.8125"/><text fill="#000000" font-family="Verdana" font-size="14" lengthAdjust="spacing" textLength="88.4434" x="391.1162" y="1738.8076">API Gateway</text></g><g class="participant participant-head" data-entity-uid="part4" data-qualified-name="user_service" id="part4-head"><rect fill="#FFFFFF" height="30.2969" rx="2.5" ry="2.5" style="stroke:#000000;stroke-width:1;" width="102.1016" x="570.8696" y="97.6094"/><text fill="#000000" font-family="Verdana" font-size="14" lengthAdjust="spacing" textLength="88.1016" x="577.8696" y="117.6045">User Service</text></g><g class="participant participant-tail" data-entity-uid="part4" data-qualified-name="user_service" id="part4-tail"><rect fill="#FFFFFF" height="30.2969" rx="2.5" ry="2.5" style="stroke:#000000;stroke-width:1;" width="102.1016" x="570.8696" y="1718.8125"/><text fill="#000000" font-family="Verdana" font-size="14" lengthAdjust="spacing" textLength="88.1016" x="577.8696" y="1738.8076">User Service</text></g><g class="participant participant-head" data-entity-uid="part5" data-qualified-name="driver_service" id="part5-head"><rect fill="#FFFFFF" height="30.2969" rx="2.5" ry="2.5" style="stroke:#000000;stroke-width:1;" width="113.2715" x="702.9712" y="97.6094"/><text fill="#000000" font-family="Verdana" font-size="14" lengthAdjust="spacing" textLength="99.2715" x="709.9712" y="117.6045">Driver Service</text></g><g class="participant participant-tail" data-entity-uid="part5" data-qualified-name="driver_service" id="part5-tail"><rect fill="#FFFFFF" height="30.2969" rx="2.5" ry="2.5" style="stroke:#000000;stroke-width:1;" width="113.2715" x="702.9712" y="1718.8125"/><text fill="#000000" font-family="Verdana" font-size="14" lengthAdjust="spacing" textLength="99.2715" x="709.9712" y="1738.8076">Driver Service</text></g><g class="participant participant-head" data-entity-uid="part6" data-qualified-name="payment_service" id="part6-head"><rect fill="#FFFFFF" height="30.2969" rx="2.5" ry="2.5" style="stroke:#000000;stroke-width:1;" width="132.1113" x="846.2427" y="97.6094"/><text fill="#000000" font-family="Verdana" font-size="14" lengthAdjust="spacing" textLength="118.1113" x="853.2427" y="117.6045">Payment Service</text></g><g class="participant participant-tail" data-entity-uid="part6" data-qualified-name="payment_service" id="part6-tail"><rect fill="#FFFFFF" height="30.2969" rx="2.5" ry="2.5" style="stroke:#000000;stroke-width:1;" width="132.1113" x="846.2427" y="1718.8125"/><text fill="#000000" font-family="Verdana" font-size="14" lengthAdjust="spacing" textLength="118.1113" x="853.2427" y="1738.8076">Payment Service</text></g><g class="participant participant-head" data-entity-uid="part7" data-qualified-name="notification_service" id="part7-head"><rect fill="#FFFFFF" height="30.2969" rx="2.5" ry="2.5" style="stroke:#000000;stroke-width:1;" width="150.5205" x="1008.354" y="97.6094"/><text fill="#000000" font-family="Verdana" font-size="14" lengthAdjust="spacing" textLength="136.5205" x="1015.354" y="117.6045">Notification Service</text></g><g class="participant participant-tail" data-entity-uid="part7" data-qualified-name="notification_service" id="part7-tail"><rect fill="#FFFFFF" height="30.2969" rx="2.5" ry="2.5" style="stroke:#000000;stroke-width:1;" width="150.5205" x="1008.354" y="1718.8125"/><text fill="#000000" font-family="Verdana" font-size="14" lengthAdjust="spacing" textLength="136.5205" x="1015.354" y="1738.8076">Notification Service</text></g><g class="participant participant-head" data-entity-uid="part8" data-qualified-name="database" id="part8-head"><text fill="#000000" font-family="Verdana" font-size="14" lengthAdjust="spacing" textLength="66.8008" x="1178.8745" y="125.6045">Database</text><path d="M1197.2749,76.6094 C1197.2749,66.6094 1215.2749,66.6094 1215.2749,66.6094 C1215.2749,66.6094 1233.2749,66.6094 1233.2749,76.6094 L1233.2749,102.6094 C1233.2749,112.6094 1215.2749,112.6094 1215.2749,112.6094 C1215.2749,112.6094 1197.2749,112.6094 1197.2749,102.6094 L1197.2749,76.6094" fill="#FFFFFF" style="stroke:#000000;stroke-width:1;"/><path d="M1197.2749,76.6094 C1197.2749,86.6094 1215.2749,86.6094 1215.2749,86.6094 C1215.2749,86.6094 1233.2749,86.6094 1233.2749,76.6094" fill="none" style="stroke:#000000;stroke-width:1;"/></g><g class="participant participant-tail" data-entity-uid="part8" data-qualified-name="database" id="part8-tail"><text fill="#000000" font-family="Verdana" font-size="14" lengthAdjust="spacing" textLength="66.8008" x="1178.8745" y="1731.8076">Database</text><path d="M1197.2749,1745.1094 C1197.2749,1735.1094 1215.2749,1735.1094 1215.2749,1735.1094 C1215.2749,1735.1094 1233.2749,1735.1094 1233.2749,1745.1094 L1233.2749,1771.1094 C1233.2749,1781.1094 1215.2749,1781.1094 1215.2749,1781.1094 C1215.2749,1781.1094 1197.2749,1781.1094 1197.2749,1771.1094 L1197.2749,1745.1094" fill="#FFFFFF" style="stroke:#000000;stroke-width:1;"/><path d="M1197.2749,1745.1094 C1197.2749,1755.1094 1215.2749,1755.1094 1215.2749,1755.1094 C1215.2749,1755.1094 1233.2749,1755.1094 1233.2749,1745.1094" fill="none" style="stroke:#000000;stroke-width:1;"/></g><g class="participant participant-head" data-entity-uid="part9" data-qualified-name="cache" id="part9-head"><rect fill="#FFFFFF" height="30.2969" rx="2.5" ry="2.5" style="stroke:#000000;stroke-width:1;" width="57.5381" x="1271.6753" y="97.6094"/><text fill="#000000" font-family="Verdana" font-size="14" lengthAdjust="spacing" textLength="43.5381" x="1278.6753" y="117.6045">Cache</text></g><g class="participant participant-tail" data-entity-uid="part9" data-qualified-name="cache" id="part9-tail"><rect fill="#FFFFFF" height="30.2969" rx="2.5" ry="2.5" style="stroke:#000000;stroke-width:1;" width="57.5381" x="1271.6753" y="1718.8125"/><text fill="#000000" font-family="Verdana" font-size="14" lengthAdjust="spacing" textLength="43.5381" x="1278.6753" y="1738.8076">Cache</text></g><g class="participant participant-head" data-entity-uid="part10" data-qualified-name="message_queue" id="part10-head"><rect fill="#FFFFFF" height="30.2969" rx="2.5" ry="2.5" style="stroke:#000000;stroke-width:1;" width="125.8018" x="1359.2134" y="97.6094"/><text fill="#000000" font-family="Verdana" font-size="14" lengthAdjust="spacing" textLength="111.8018" x="1366.2134" y="117.6045">Message Queue</text></g><g class="participant participant-tail" data-entity-uid="part10" data-qualified-name="message_queue" id="part10-tail"><rect fill="#FFFFFF" height="30.2969" rx="2.5" ry="2.5" style="stroke:#000000;stroke-width:1;" width="125.8018" x="1359.2134" y="1718.8125"/><text fill="#000000" font-family="Verdana" font-size="14" lengthAdjust="spacing" textLength="111.8018" x="1366.2134" y="1738.8076">Message Queue</text></g><g class="participant participant-head" data-entity-uid="part11" data-qualified-name="external_payment_gateway" id="part11-head"><rect fill="#FFFFFF" height="30.2969" rx="2.5" ry="2.5" style="stroke:#000000;stroke-width:1;" width="204.9961" x="1515.0151" y="97.6094"/><text fill="#000000" font-family="Verdana" font-size="14" lengthAdjust="spacing" textLength="190.9961" x="1522.0151" y="117.6045">External Payment Gateway</text></g><g class="participant participant-tail" data-entity-uid="part11" data-qualified-name="external_payment_gateway" id="part11-tail"><rect fill="#FFFFFF" height="30.2969" rx="2.5" ry="2.5" style="stroke:#000000;stroke-width:1;" width="204.9961" x="1515.0151" y="1718.8125"/><text fill="#000000" font-family="Verdana" font-size="14" lengthAdjust="spacing" textLength="190.9961" x="1522.0151" y="1738.8076">External Payment Gateway</text></g><g class="participant participant-head" data-entity-uid="part12" data-qualified-name="Driver App" id="part12-head"><rect fill="#FFFFFF" height="30.2969" rx="2.5" ry="2.5" style="stroke:#000000;stroke-width:1;" width="88.8809" x="1750.0112" y="97.6094"/><text fill="#000000" font-family="Verdana" font-size="14" lengthAdjust="spacing" textLength="74.8809" x="1757.0112" y="117.6045">Driver App</text></g><g class="participant participant-tail" data-entity-uid="part12" data-qualified-name="Driver App" id="part12-tail"><rect fill="#FFFFFF" height="30.2969" rx="2.5" ry="2.5" style="stroke:#000000;stroke-width:1;" width="88.8809" x="1750.0112" y="1718.8125"/><text fill="#000000" font-family="Verdana" font-size="14" lengthAdjust="spacing" textLength="74.8809" x="1757.0112" y="1738.8076">Driver App</text></g><rect fill="#FFFFFF" height="3" style="stroke:#FFFFFF;stroke-width:1;" width="1848.8921" x="5" y="159.4727"/><line style="stroke:#000000;stroke-width:0.5;" x1="5" x2="1853.8921" y1="159.4727" y2="159.4727"/><line style="stroke:#000000;stroke-width:0.5;" x1="5" x2="1853.8921" y1="162.4727" y2="162.4727"/><rect fill="#FFFFFF" height="23.1328" style="stroke:#000000;stroke-width:1;" width="202.3667" x="828.2627" y="148.9063"/><text fill="#000000" font-family="Verdana" font-size="13" font-weight="bold" lengthAdjust="spacing" textLength="183.8408" x="834.2627" y="164.9731">Customer Authentication</text><g class="message" data-entity-1="part1" data-entity-2="part2" id="msg1"><polygon fill="#000000" points="246.1372,199.1719,256.1372,203.1719,246.1372,207.1719,250.1372,203.1719" style="stroke:#000000;stroke-width:1;"/><line style="stroke:#000000;stroke-width:1;" x1="47.002" x2="252.1372" y1="203.1719" y2="203.1719"/><text fill="#000000" font-family="Verdana" font-size="13" lengthAdjust="spacing" textLength="92.8218" x="54.002" y="198.106">Login Request</text></g><g class="message" data-entity-1="part2" data-entity-2="part3" id="msg2"><polygon fill="#000000" points="423.3379,228.3047,433.3379,232.3047,423.3379,236.3047,427.3379,232.3047" style="stroke:#000000;stroke-width:1;"/><line style="stroke:#000000;stroke-width:1;" x1="258.1372" x2="429.3379" y1="232.3047" y2="232.3047"/><text fill="#000000" font-family="Verdana" font-size="13" lengthAdjust="spacing" textLength="149.9253" x="265.1372" y="227.2388">Forward Login Request</text></g><g class="message" data-entity-1="part3" data-entity-2="part4" id="msg3"><polygon fill="#000000" points="609.9204,257.4375,619.9204,261.4375,609.9204,265.4375,613.9204,261.4375" style="stroke:#000000;stroke-width:1;"/><line style="stroke:#000000;stroke-width:1;" x1="435.3379" x2="615.9204" y1="261.4375" y2="261.4375"/><text fill="#000000" font-family="Verdana" font-size="13" lengthAdjust="spacing" textLength="117.3872" x="442.3379" y="256.3716">Authenticate User</text></g><g class="message" data-entity-1="part4" data-entity-2="part8" id="msg4"><polygon fill="#000000" points="1203.2749,286.5703,1213.2749,290.5703,1203.2749,294.5703,1207.2749,290.5703" style="stroke:#000000;stroke-width:1;"/><line style="stroke:#000000;stroke-width:1;" x1="621.9204" x2="1209.2749" y1="290.5703" y2="290.5703"/><text fill="#000000" font-family="Verdana" font-size="13" lengthAdjust="spacing" textLength="131.498" x="628.9204" y="285.5044">Validate Credentials</text></g><g class="message" data-entity-1="part8" data-entity-2="part4" id="msg5"><polygon fill="#000000" points="632.9204,315.7031,622.9204,319.7031,632.9204,323.7031,628.9204,319.7031" style="stroke:#000000;stroke-width:1;"/><line style="stroke:#000000;stroke-width:1;" x1="626.9204" x2="1214.2749" y1="319.7031" y2="319.7031"/><text fill="#000000" font-family="Verdana" font-size="13" lengthAdjust="spacing" textLength="112.8867" x="638.9204" y="314.6372">Return User Data</text></g><g class="message" data-entity-1="part4" data-entity-2="part9" id="msg6"><polygon fill="#000000" points="1288.4443,344.8359,1298.4443,348.8359,1288.4443,352.8359,1292.4443,348.8359" style="stroke:#000000;stroke-width:1;"/><line style="stroke:#000000;stroke-width:1;" x1="621.9204" x2="1294.4443" y1="348.8359" y2="348.8359"/><text fill="#000000" font-family="Verdana" font-size="13" lengthAdjust="spacing" textLength="88.3784" x="628.9204" y="343.77">Store Session</text></g><g class="message" data-entity-1="part4" data-entity-2="part3" id="msg7"><polygon fill="#000000" points="446.3379,373.9688,436.3379,377.9688,446.3379,381.9688,442.3379,377.9688" style="stroke:#000000;stroke-width:1;"/><line style="stroke:#000000;stroke-width:1;" x1="440.3379" x2="620.9204" y1="377.9688" y2="377.9688"/><text fill="#000000" font-family="Verdana" font-size="13" lengthAdjust="spacing" textLength="162.5825" x="452.3379" y="372.9028">Authentication Response</text></g><g class="message" data-entity-1="part3" data-entity-2="part2" id="msg8"><polygon fill="#000000" points="269.1372,403.1016,259.1372,407.1016,269.1372,411.1016,265.1372,407.1016" style="stroke:#000000;stroke-width:1;"/><line style="stroke:#000000;stroke-width:1;" x1="263.1372" x2="434.3379" y1="407.1016" y2="407.1016"/><text fill="#000000" font-family="Verdana" font-size="13" lengthAdjust="spacing" textLength="140.3911" x="275.1372" y="402.0356">Login Success/Failure</text></g><g class="message" data-entity-1="part2" data-entity-2="part1" id="msg9"><polygon fill="#000000" points="58.002,432.2344,48.002,436.2344,58.002,440.2344,54.002,436.2344" style="stroke:#000000;stroke-width:1;"/><line style="stroke:#000000;stroke-width:1;" x1="52.002" x2="257.1372" y1="436.2344" y2="436.2344"/><text fill="#000000" font-family="Verdana" font-size="13" lengthAdjust="spacing" textLength="92.8027" x="64.002" y="431.1685">Display Result</text></g><rect fill="#FFFFFF" height="3" style="stroke:#FFFFFF;stroke-width:1;" width="1848.8921" x="5" y="464.8008"/><line style="stroke:#000000;stroke-width:0.5;" x1="5" x2="1853.8921" y1="464.8008" y2="464.8008"/><line style="stroke:#000000;stroke-width:0.5;" x1="5" x2="1853.8921" y1="467.8008" y2="467.8008"/><rect fill="#FFFFFF" height="23.1328" style="stroke:#000000;stroke-width:1;" width="165.2329" x="846.8296" y="454.2344"/><text fill="#000000" font-family="Verdana" font-size="13" font-weight="bold" lengthAdjust="spacing" textLength="146.707" x="852.8296" y="470.3013">Find Nearby Drivers</text><g class="message" data-entity-1="part1" data-entity-2="part2" id="msg10"><polygon fill="#000000" points="246.1372,504.5,256.1372,508.5,246.1372,512.5,250.1372,508.5" style="stroke:#000000;stroke-width:1;"/><line style="stroke:#000000;stroke-width:1;" x1="47.002" x2="252.1372" y1="508.5" y2="508.5"/><text fill="#000000" font-family="Verdana" font-size="13" lengthAdjust="spacing" textLength="86.417" x="54.002" y="503.4341">Request Ride</text></g><g class="message" data-entity-1="part2" data-entity-2="part3" id="msg11"><polygon fill="#000000" points="423.3379,533.6328,433.3379,537.6328,423.3379,541.6328,427.3379,537.6328" style="stroke:#000000;stroke-width:1;"/><line style="stroke:#000000;stroke-width:1;" x1="258.1372" x2="429.3379" y1="537.6328" y2="537.6328"/><text fill="#000000" font-family="Verdana" font-size="13" lengthAdjust="spacing" textLength="137.814" x="265.1372" y="532.5669">Get Available Drivers</text></g><g class="message" data-entity-1="part3" data-entity-2="part5" id="msg12"><polygon fill="#000000" points="747.6069,562.7656,757.6069,566.7656,747.6069,570.7656,751.6069,566.7656" style="stroke:#000000;stroke-width:1;"/><line style="stroke:#000000;stroke-width:1;" x1="435.3379" x2="753.6069" y1="566.7656" y2="566.7656"/><text fill="#000000" font-family="Verdana" font-size="13" lengthAdjust="spacing" textLength="129.6001" x="442.3379" y="561.6997">Find Nearby Drivers</text></g><g class="message" data-entity-1="part5" data-entity-2="part8" id="msg13"><polygon fill="#000000" points="1203.2749,591.8984,1213.2749,595.8984,1203.2749,599.8984,1207.2749,595.8984" style="stroke:#000000;stroke-width:1;"/><line style="stroke:#000000;stroke-width:1;" x1="759.6069" x2="1209.2749" y1="595.8984" y2="595.8984"/><text fill="#000000" font-family="Verdana" font-size="13" lengthAdjust="spacing" textLength="149.7603" x="766.6069" y="590.8325">Query Driver Locations</text></g><g class="message" data-entity-1="part8" data-entity-2="part5" id="msg14"><polygon fill="#000000" points="770.6069,621.0313,760.6069,625.0313,770.6069,629.0313,766.6069,625.0313" style="stroke:#000000;stroke-width:1;"/><line style="stroke:#000000;stroke-width:1;" x1="764.6069" x2="1214.2749" y1="625.0313" y2="625.0313"/><text fill="#000000" font-family="Verdana" font-size="13" lengthAdjust="spacing" textLength="114.9434" x="776.6069" y="619.9653">Return Driver List</text></g><g class="message" data-entity-1="part5" data-entity-2="part3" id="msg15"><polygon fill="#000000" points="446.3379,650.1641,436.3379,654.1641,446.3379,658.1641,442.3379,654.1641" style="stroke:#000000;stroke-width:1;"/><line style="stroke:#000000;stroke-width:1;" x1="440.3379" x2="758.6069" y1="654.1641" y2="654.1641"/><text fill="#000000" font-family="Verdana" font-size="13" lengthAdjust="spacing" textLength="110.5127" x="452.3379" y="649.0981">Available Drivers</text></g><g class="message" data-entity-1="part3" data-entity-2="part2" id="msg16"><polygon fill="#000000" points="269.1372,679.2969,259.1372,683.2969,269.1372,687.2969,265.1372,683.2969" style="stroke:#000000;stroke-width:1;"/><line style="stroke:#000000;stroke-width:1;" x1="263.1372" x2="434.3379" y1="683.2969" y2="683.2969"/><text fill="#000000" font-family="Verdana" font-size="13" lengthAdjust="spacing" textLength="94.2944" x="275.1372" y="678.231">Driver Options</text></g><g class="message" data-entity-1="part2" data-entity-2="part1" id="msg17"><polygon fill="#000000" points="58.002,708.4297,48.002,712.4297,58.002,716.4297,54.002,712.4297" style="stroke:#000000;stroke-width:1;"/><line style="stroke:#000000;stroke-width:1;" x1="52.002" x2="257.1372" y1="712.4297" y2="712.4297"/><text fill="#000000" font-family="Verdana" font-size="13" lengthAdjust="spacing" textLength="146.3452" x="64.002" y="707.3638">Display Driver Options</text></g><rect fill="#FFFFFF" height="3" style="stroke:#FFFFFF;stroke-width:1;" width="1848.8921" x="5" y="740.9961"/><line style="stroke:#000000;stroke-width:0.5;" x1="5" x2="1853.8921" y1="740.9961" y2="740.9961"/><line style="stroke:#000000;stroke-width:0.5;" x1="5" x2="1853.8921" y1="743.9961" y2="743.9961"/><rect fill="#FFFFFF" height="23.1328" style="stroke:#000000;stroke-width:1;" width="92.0571" x="883.4175" y="730.4297"/><text fill="#000000" font-family="Verdana" font-size="13" font-weight="bold" lengthAdjust="spacing" textLength="73.5313" x="889.4175" y="746.4966">Book Ride</text><g class="message" data-entity-1="part1" data-entity-2="part2" id="msg18"><polygon fill="#000000" points="246.1372,780.6953,256.1372,784.6953,246.1372,788.6953,250.1372,784.6953" style="stroke:#000000;stroke-width:1;"/><line style="stroke:#000000;stroke-width:1;" x1="47.002" x2="252.1372" y1="784.6953" y2="784.6953"/><text fill="#000000" font-family="Verdana" font-size="13" lengthAdjust="spacing" textLength="187.1353" x="54.002" y="779.6294">Select Driver &amp; Confirm Ride</text></g><g class="message" data-entity-1="part2" data-entity-2="part3" id="msg19"><polygon fill="#000000" points="423.3379,809.8281,433.3379,813.8281,423.3379,817.8281,427.3379,813.8281" style="stroke:#000000;stroke-width:1;"/><line style="stroke:#000000;stroke-width:1;" x1="258.1372" x2="429.3379" y1="813.8281" y2="813.8281"/><text fill="#000000" font-family="Verdana" font-size="13" lengthAdjust="spacing" textLength="134.0308" x="265.1372" y="808.7622">Create Ride Request</text></g><g class="message" data-entity-1="part3" data-entity-2="part4" id="msg20"><polygon fill="#000000" points="609.9204,838.9609,619.9204,842.9609,609.9204,846.9609,613.9204,842.9609" style="stroke:#000000;stroke-width:1;"/><line style="stroke:#000000;stroke-width:1;" x1="435.3379" x2="615.9204" y1="842.9609" y2="842.9609"/><text fill="#000000" font-family="Verdana" font-size="13" lengthAdjust="spacing" textLength="87.1597" x="442.3379" y="837.895">Validate User</text></g><g class="message" data-entity-1="part4" data-entity-2="part9" id="msg21"><polygon fill="#000000" points="1288.4443,868.0938,1298.4443,872.0938,1288.4443,876.0938,1292.4443,872.0938" style="stroke:#000000;stroke-width:1;"/><line style="stroke:#000000;stroke-width:1;" x1="621.9204" x2="1294.4443" y1="872.0938" y2="872.0938"/><text fill="#000000" font-family="Verdana" font-size="13" lengthAdjust="spacing" textLength="119.3105" x="628.9204" y="867.0278">Check User Status</text></g><g class="message" data-entity-1="part4" data-entity-2="part3" id="msg22"><polygon fill="#000000" points="446.3379,897.2266,436.3379,901.2266,446.3379,905.2266,442.3379,901.2266" style="stroke:#000000;stroke-width:1;"/><line style="stroke:#000000;stroke-width:1;" x1="440.3379" x2="620.9204" y1="901.2266" y2="901.2266"/><text fill="#000000" font-family="Verdana" font-size="13" lengthAdjust="spacing" textLength="110.0874" x="452.3379" y="896.1606">Validation Result</text></g><g class="message" data-entity-1="part3" data-entity-2="part5" id="msg23"><polygon fill="#000000" points="747.6069,926.3594,757.6069,930.3594,747.6069,934.3594,751.6069,930.3594" style="stroke:#000000;stroke-width:1;"/><line style="stroke:#000000;stroke-width:1;" x1="435.3379" x2="753.6069" y1="930.3594" y2="930.3594"/><text fill="#000000" font-family="Verdana" font-size="13" lengthAdjust="spacing" textLength="136.8872" x="442.3379" y="925.2935">Assign Ride to Driver</text></g><g class="message" data-entity-1="part5" data-entity-2="part8" id="msg24"><polygon fill="#000000" points="1203.2749,955.4922,1213.2749,959.4922,1203.2749,963.4922,1207.2749,959.4922" style="stroke:#000000;stroke-width:1;"/><line style="stroke:#000000;stroke-width:1;" x1="759.6069" x2="1209.2749" y1="959.4922" y2="959.4922"/><text fill="#000000" font-family="Verdana" font-size="13" lengthAdjust="spacing" textLength="125.6646" x="766.6069" y="954.4263">Update Ride Status</text></g><g class="message" data-entity-1="part8" data-entity-2="part5" id="msg25"><polygon fill="#000000" points="770.6069,984.625,760.6069,988.625,770.6069,992.625,766.6069,988.625" style="stroke:#000000;stroke-width:1;"/><line style="stroke:#000000;stroke-width:1;" x1="764.6069" x2="1214.2749" y1="988.625" y2="988.625"/><text fill="#000000" font-family="Verdana" font-size="13" lengthAdjust="spacing" textLength="84.335" x="776.6069" y="983.5591">Confirmation</text></g><g class="message" data-entity-1="part5" data-entity-2="part10" id="msg26"><polygon fill="#000000" points="1410.1143,1013.7578,1420.1143,1017.7578,1410.1143,1021.7578,1414.1143,1017.7578" style="stroke:#000000;stroke-width:1;"/><line style="stroke:#000000;stroke-width:1;" x1="759.6069" x2="1416.1143" y1="1017.7578" y2="1017.7578"/><text fill="#000000" font-family="Verdana" font-size="13" lengthAdjust="spacing" textLength="160.2656" x="766.6069" y="1012.6919">Publish Ride Assignment</text></g><g class="message" data-entity-1="part10" data-entity-2="part7" id="msg27"><polygon fill="#000000" points="1094.6143,1042.8906,1084.6143,1046.8906,1094.6143,1050.8906,1090.6143,1046.8906" style="stroke:#000000;stroke-width:1;"/><line style="stroke:#000000;stroke-width:1;" x1="1088.6143" x2="1421.1143" y1="1046.8906" y2="1046.8906"/><text fill="#000000" font-family="Verdana" font-size="13" lengthAdjust="spacing" textLength="128.5527" x="1100.6143" y="1041.8247">Process Notification</text></g><g class="message" data-entity-1="part7" data-entity-2="part2" id="msg28"><polygon fill="#000000" points="269.1372,1072.0234,259.1372,1076.0234,269.1372,1080.0234,265.1372,1076.0234" style="stroke:#000000;stroke-width:1;"/><line style="stroke:#000000;stroke-width:1;" x1="263.1372" x2="1082.6143" y1="1076.0234" y2="1076.0234"/><text fill="#000000" font-family="Verdana" font-size="13" lengthAdjust="spacing" textLength="157.5488" x="275.1372" y="1070.9575">Send Driver Assignment</text></g><g class="message" data-entity-1="part7" data-entity-2="part12" id="msg29"><polygon fill="#000000" points="1782.4517,1101.1563,1792.4517,1105.1563,1782.4517,1109.1563,1786.4517,1105.1563" style="stroke:#000000;stroke-width:1;"/><line style="stroke:#000000;stroke-width:1;" x1="1083.6143" x2="1788.4517" y1="1105.1563" y2="1105.1563"/><text fill="#000000" font-family="Verdana" font-size="13" lengthAdjust="spacing" textLength="163.4648" x="1090.6143" y="1100.0903">Notify Driver Assignment</text></g><g class="message" data-entity-1="part5" data-entity-2="part3" id="msg30"><polygon fill="#000000" points="446.3379,1130.2891,436.3379,1134.2891,446.3379,1138.2891,442.3379,1134.2891" style="stroke:#000000;stroke-width:1;"/><line style="stroke:#000000;stroke-width:1;" x1="440.3379" x2="758.6069" y1="1134.2891" y2="1134.2891"/><text fill="#000000" font-family="Verdana" font-size="13" lengthAdjust="spacing" textLength="151.9121" x="452.3379" y="1129.2231">Ride Created Response</text></g><g class="message" data-entity-1="part3" data-entity-2="part2" id="msg31"><polygon fill="#000000" points="269.1372,1159.4219,259.1372,1163.4219,269.1372,1167.4219,265.1372,1163.4219" style="stroke:#000000;stroke-width:1;"/><line style="stroke:#000000;stroke-width:1;" x1="263.1372" x2="434.3379" y1="1163.4219" y2="1163.4219"/><text fill="#000000" font-family="Verdana" font-size="13" lengthAdjust="spacing" textLength="100.7437" x="275.1372" y="1158.356">Ride Confirmed</text></g><g class="message" data-entity-1="part2" data-entity-2="part1" id="msg32"><polygon fill="#000000" points="58.002,1188.5547,48.002,1192.5547,58.002,1196.5547,54.002,1192.5547" style="stroke:#000000;stroke-width:1;"/><line style="stroke:#000000;stroke-width:1;" x1="52.002" x2="257.1372" y1="1192.5547" y2="1192.5547"/><text fill="#000000" font-family="Verdana" font-size="13" lengthAdjust="spacing" textLength="113.6611" x="64.002" y="1187.4888">Show Ride Status</text></g><rect fill="#FFFFFF" height="3" style="stroke:#FFFFFF;stroke-width:1;" width="1848.8921" x="5" y="1221.1211"/><line style="stroke:#000000;stroke-width:0.5;" x1="5" x2="1853.8921" y1="1221.1211" y2="1221.1211"/><line style="stroke:#000000;stroke-width:0.5;" x1="5" x2="1853.8921" y1="1224.1211" y2="1224.1211"/><rect fill="#FFFFFF" height="23.1328" style="stroke:#000000;stroke-width:1;" width="144.5269" x="857.1826" y="1210.5547"/><text fill="#000000" font-family="Verdana" font-size="13" font-weight="bold" lengthAdjust="spacing" textLength="126.001" x="863.1826" y="1226.6216">Process Payment</text><g class="message" data-entity-1="part1" data-entity-2="part2" id="msg33"><polygon fill="#000000" points="246.1372,1260.8203,256.1372,1264.8203,246.1372,1268.8203,250.1372,1264.8203" style="stroke:#000000;stroke-width:1;"/><line style="stroke:#000000;stroke-width:1;" x1="47.002" x2="252.1372" y1="1264.8203" y2="1264.8203"/><text fill="#000000" font-family="Verdana" font-size="13" lengthAdjust="spacing" textLength="163.084" x="54.002" y="1259.7544">Confirm Ride Completion</text></g><g class="message" data-entity-1="part2" data-entity-2="part3" id="msg34"><polygon fill="#000000" points="423.3379,1289.9531,433.3379,1293.9531,423.3379,1297.9531,427.3379,1293.9531" style="stroke:#000000;stroke-width:1;"/><line style="stroke:#000000;stroke-width:1;" x1="258.1372" x2="429.3379" y1="1293.9531" y2="1293.9531"/><text fill="#000000" font-family="Verdana" font-size="13" lengthAdjust="spacing" textLength="153.2007" x="265.1372" y="1288.8872">Complete Ride Request</text></g><g class="message" data-entity-1="part3" data-entity-2="part6" id="msg35"><polygon fill="#000000" points="900.2983,1319.0859,910.2983,1323.0859,900.2983,1327.0859,904.2983,1323.0859" style="stroke:#000000;stroke-width:1;"/><line style="stroke:#000000;stroke-width:1;" x1="435.3379" x2="906.2983" y1="1323.0859" y2="1323.0859"/><text fill="#000000" font-family="Verdana" font-size="13" lengthAdjust="spacing" textLength="111.4585" x="442.3379" y="1318.02">Process Payment</text></g><g class="message" data-entity-1="part6" data-entity-2="part8" id="msg36"><polygon fill="#000000" points="1203.2749,1348.2188,1213.2749,1352.2188,1203.2749,1356.2188,1207.2749,1352.2188" style="stroke:#000000;stroke-width:1;"/><line style="stroke:#000000;stroke-width:1;" x1="912.2983" x2="1209.2749" y1="1352.2188" y2="1352.2188"/><text fill="#000000" font-family="Verdana" font-size="13" lengthAdjust="spacing" textLength="145.1392" x="919.2983" y="1347.1528">Retrieve Payment Info</text></g><g class="message" data-entity-1="part8" data-entity-2="part6" id="msg37"><polygon fill="#000000" points="923.2983,1377.3516,913.2983,1381.3516,923.2983,1385.3516,919.2983,1381.3516" style="stroke:#000000;stroke-width:1;"/><line style="stroke:#000000;stroke-width:1;" x1="917.2983" x2="1214.2749" y1="1381.3516" y2="1381.3516"/><text fill="#000000" font-family="Verdana" font-size="13" lengthAdjust="spacing" textLength="106.6978" x="929.2983" y="1376.2856">Payment Details</text></g><g class="message" data-entity-1="part6" data-entity-2="part11" id="msg38"><polygon fill="#000000" points="1605.5132,1406.4844,1615.5132,1410.4844,1605.5132,1414.4844,1609.5132,1410.4844" style="stroke:#000000;stroke-width:1;"/><line style="stroke:#000000;stroke-width:1;" x1="912.2983" x2="1611.5132" y1="1410.4844" y2="1410.4844"/><text fill="#000000" font-family="Verdana" font-size="13" lengthAdjust="spacing" textLength="114.1563" x="919.2983" y="1405.4185">Charge Customer</text></g><g class="message" data-entity-1="part11" data-entity-2="part6" id="msg39"><polygon fill="#000000" points="923.2983,1435.6172,913.2983,1439.6172,923.2983,1443.6172,919.2983,1439.6172" style="stroke:#000000;stroke-width:1;"/><line style="stroke:#000000;stroke-width:1;" x1="917.2983" x2="1616.5132" y1="1439.6172" y2="1439.6172"/><text fill="#000000" font-family="Verdana" font-size="13" lengthAdjust="spacing" textLength="145.9644" x="929.2983" y="1434.5513">Payment Confirmation</text></g><g class="message" data-entity-1="part6" data-entity-2="part8" id="msg40"><polygon fill="#000000" points="1203.2749,1464.75,1213.2749,1468.75,1203.2749,1472.75,1207.2749,1468.75" style="stroke:#000000;stroke-width:1;"/><line style="stroke:#000000;stroke-width:1;" x1="912.2983" x2="1209.2749" y1="1468.75" y2="1468.75"/><text fill="#000000" font-family="Verdana" font-size="13" lengthAdjust="spacing" textLength="127.4927" x="919.2983" y="1463.6841">Update Transaction</text></g><g class="message" data-entity-1="part8" data-entity-2="part6" id="msg41"><polygon fill="#000000" points="923.2983,1493.8828,913.2983,1497.8828,923.2983,1501.8828,919.2983,1497.8828" style="stroke:#000000;stroke-width:1;"/><line style="stroke:#000000;stroke-width:1;" x1="917.2983" x2="1214.2749" y1="1497.8828" y2="1497.8828"/><text fill="#000000" font-family="Verdana" font-size="13" lengthAdjust="spacing" textLength="120.5737" x="929.2983" y="1492.8169">Transaction Saved</text></g><g class="message" data-entity-1="part6" data-entity-2="part10" id="msg42"><polygon fill="#000000" points="1410.1143,1523.0156,1420.1143,1527.0156,1410.1143,1531.0156,1414.1143,1527.0156" style="stroke:#000000;stroke-width:1;"/><line style="stroke:#000000;stroke-width:1;" x1="912.2983" x2="1416.1143" y1="1527.0156" y2="1527.0156"/><text fill="#000000" font-family="Verdana" font-size="13" lengthAdjust="spacing" textLength="149.5698" x="919.2983" y="1521.9497">Publish Payment Event</text></g><g class="message" data-entity-1="part10" data-entity-2="part7" id="msg43"><polygon fill="#000000" points="1094.6143,1552.1484,1084.6143,1556.1484,1094.6143,1560.1484,1090.6143,1556.1484" style="stroke:#000000;stroke-width:1;"/><line style="stroke:#000000;stroke-width:1;" x1="1088.6143" x2="1421.1143" y1="1556.1484" y2="1556.1484"/><text fill="#000000" font-family="Verdana" font-size="13" lengthAdjust="spacing" textLength="86.0107" x="1100.6143" y="1551.0825">Send Receipt</text></g><g class="message" data-entity-1="part7" data-entity-2="part2" id="msg44"><polygon fill="#000000" points="269.1372,1581.2813,259.1372,1585.2813,269.1372,1589.2813,265.1372,1585.2813" style="stroke:#000000;stroke-width:1;"/><line style="stroke:#000000;stroke-width:1;" x1="263.1372" x2="1082.6143" y1="1585.2813" y2="1585.2813"/><text fill="#000000" font-family="Verdana" font-size="13" lengthAdjust="spacing" textLength="170.4727" x="275.1372" y="1580.2153">Send Receipt to Customer</text></g><g class="message" data-entity-1="part7" data-entity-2="part12" id="msg45"><polygon fill="#000000" points="1782.4517,1610.4141,1792.4517,1614.4141,1782.4517,1618.4141,1786.4517,1614.4141" style="stroke:#000000;stroke-width:1;"/><line style="stroke:#000000;stroke-width:1;" x1="1083.6143" x2="1788.4517" y1="1614.4141" y2="1614.4141"/><text fill="#000000" font-family="Verdana" font-size="13" lengthAdjust="spacing" textLength="155.689" x="1090.6143" y="1609.3481">Send Payment to Driver</text></g><g class="message" data-entity-1="part6" data-entity-2="part3" id="msg46"><polygon fill="#000000" points="446.3379,1639.5469,436.3379,1643.5469,446.3379,1647.5469,442.3379,1643.5469" style="stroke:#000000;stroke-width:1;"/><line style="stroke:#000000;stroke-width:1;" x1="440.3379" x2="911.2983" y1="1643.5469" y2="1643.5469"/><text fill="#000000" font-family="Verdana" font-size="13" lengthAdjust="spacing" textLength="113.9595" x="452.3379" y="1638.481">Payment Success</text></g><g class="message" data-entity-1="part3" data-entity-2="part2" id="msg47"><polygon fill="#000000" points="269.1372,1668.6797,259.1372,1672.6797,269.1372,1676.6797,265.1372,1672.6797" style="stroke:#000000;stroke-width:1;"/><line style="stroke:#000000;stroke-width:1;" x1="263.1372" x2="434.3379" y1="1672.6797" y2="1672.6797"/><text fill="#000000" font-family="Verdana" font-size="13" lengthAdjust="spacing" textLength="129.3462" x="275.1372" y="1667.6138">Payment Confirmed</text></g><g class="message" data-entity-1="part2" data-entity-2="part1" id="msg48"><polygon fill="#000000" points="58.002,1697.8125,48.002,1701.8125,58.002,1705.8125,54.002,1701.8125" style="stroke:#000000;stroke-width:1;"/><line style="stroke:#000000;stroke-width:1;" x1="52.002" x2="257.1372" y1="1701.8125" y2="1701.8125"/><text fill="#000000" font-family="Verdana" font-size="13" lengthAdjust="spacing" textLength="88.3467" x="64.002" y="1696.7466">Show Receipt</text></g><?plantuml-src bLPDZvim4BtpAwPxw6tLEr8gfTaFhTHkqz3jDN9WDh4MRDOssURVTunjWWaXwGtiDyFClFTiFfaTLWXroRX84iDDYV2oGGNpkYvvpWoN0Z9yRr3a27USRHMhu1PMl43u9kKR5rjOAfcZrad2SYCLB1fjP8KggPaoFESr4mPkViWDf-IKzmQOXgfzNREwZc7pvHCyCeCVxD3YMCtNM_SU0ryqLPcXslCSMsH32slj5cBedUBx0RXebyRXItQea1xw-DgjZGSyIyDVZyCwHedUHXTQCCCsJ2FLvPzSHVubJhrW-Sxjv_PfC58QEjiY_6gmSQ3AhQpVxKeCllzhK0bMGcYlFsNqc-lGPnXvCfjrVCAy8RK84pgTpP9kw_PhZz4Kliij5x2okj4cEUvON8_H51wa-c2g60Jq83QYpspQhuAqIij9Vz_YmoXJ-CDANbZSGc5XWrYfZmISf5wXQPHeau8bvoHpIq8A6SaSYMcjQGudeAZ1mSnMg6ifYEL1YwV3ovhSckhB0-Dbet0mn33ub3ofoRq7cxafJKlO0nS5F2DJcmCuxUifilpKMqzFSVM81kPxAeTjoCW-yR2Hs5ZfM2r9Z8aP8oshWAH9kB75d0q_uLaBCPm4TFg5c9HBNVJ7u_F-h5qbbtWOm2qVzfnq9-O42ncMc9iG_XaMKhnoLLraXPHj1Twclye_dIT6lUCLljXX_kQCa1bc6ZsjSf_JAzpgy88ivcIThN1L6-cxdXJ6IrrqVVgIfaJXnzVMD98tEYXJM3QRakkTo-vgiyTW4i5itDY9deOB4FeNGJ86FIMTtE4fxttsN6YuoUmbchgl7KR2BwY_RTB9fhZgG781Rg1Od7L0jfCV4JzM-s4quTQPS41VyVHIrIMsWvmIlqDDotzmTwV3cf818DOTdIwAunwx3fx4guoaTvhV8-_Gq3cZn_AVkt2jyvYYExtxYJg7dFnofFx9zhojVYicDFs-jMwPwgq7X8pjIGuZwS-uArHtl_yFRxKMMM6El3RNUye7sBEbc-Hrhch3GwN7escaoqY9tK-ZkxQdx3GWwQAZN2l_0000?></g></svg>