<?plantuml 1.2026.0?><svg xmlns="http://www.w3.org/2000/svg" xmlns:xlink="http://www.w3.org/1999/xlink" contentStyleType="text/css" data-diagram-type="DESCRIPTION" height="858px" preserveAspectRatio="none" style="width:1149px;height:858px;background:#FFFFFF;" version="1.1" viewBox="0 0 1149 858" width="1149px" zoomAndPan="magnify"><title>Uber Application Component Diagram</title><defs/><g><g class="title" data-source-line="3"><text fill="#000000" font-family="Verdana" font-size="22" font-weight="bold" lengthAdjust="spacing" textLength="469.5088" x="335.2456" y="35.4209">Uber Application Component Diagram</text></g><!--cluster Uber Application--><g class="cluster" data-qualified-name="Uber Application" data-source-line="5" id="ent0002"><path d="M13.5,57.6094 L146.4609,57.6094 A3.75,3.75 0 0 1 148.9609,60.1094 L155.9609,79.9063 L795.5,79.9063 A2.5,2.5 0 0 1 798,82.4063 L798,849.2994 A2.5,2.5 0 0 1 795.5,851.7994 L13.5,851.7994 A2.5,2.5 0 0 1 11,849.2994 L11,60.1094 A2.5,2.5 0 0 1 13.5,57.6094" fill="#FFFFFF" style="stroke:#000000;stroke-width:1;"/><line style="stroke:#000000;stroke-width:1;" x1="11" x2="155.9609" y1="79.9063" y2="79.9063"/><text fill="#000000" font-family="Verdana" font-size="14" font-weight="bold" lengthAdjust="spacing" textLength="131.9609" x="15" y="72.6045">Uber Application</text></g><!--cluster API Layer--><g class="cluster" data-qualified-name="Uber Application.API Layer" data-source-line="9" id="ent0005"><path d="M332.5,281.9094 L408.5723,281.9094 A3.75,3.75 0 0 1 411.0723,284.4094 L418.0723,304.2063 L487.5,304.2063 A2.5,2.5 0 0 1 490,306.7063 L490,376.7094 A2.5,2.5 0 0 1 487.5,379.2094 L332.5,379.2094 A2.5,2.5 0 0 1 330,376.7094 L330,284.4094 A2.5,2.5 0 0 1 332.5,281.9094" fill="#FFFFFF" style="stroke:#000000;stroke-width:1;"/><line style="stroke:#000000;stroke-width:1;" x1="330" x2="418.0723" y1="304.2063" y2="304.2063"/><text fill="#000000" font-family="Verdana" font-size="14" font-weight="bold" lengthAdjust="spacing" textLength="75.0723" x="334" y="296.9045">API Layer</text></g><!--cluster Business Services--><g class="cluster" data-qualified-name="Uber Application.Business Services" data-source-line="13" id="ent0007"><path d="M37.5,506.2094 L179.8057,506.2094 A3.75,3.75 0 0 1 182.3057,508.7094 L189.3057,528.5063 L771.5,528.5063 A2.5,2.5 0 0 1 774,531.0063 L774,600.9994 A2.5,2.5 0 0 1 771.5,603.4994 L37.5,603.4994 A2.5,2.5 0 0 1 35,600.9994 L35,508.7094 A2.5,2.5 0 0 1 37.5,506.2094" fill="#FFFFFF" style="stroke:#000000;stroke-width:1;"/><line style="stroke:#000000;stroke-width:1;" x1="35" x2="189.3057" y1="528.5063" y2="528.5063"/><text fill="#000000" font-family="Verdana" font-size="14" font-weight="bold" lengthAdjust="spacing" textLength="141.3057" x="39" y="521.2045">Business Services</text></g><!--cluster Data Layer--><g class="cluster" data-qualified-name="Uber Application.Data Layer" data-source-line="20" id="ent0012"><path d="M323.5,730.4994 L410.4756,730.4994 A3.75,3.75 0 0 1 412.9756,732.9994 L419.9756,752.7963 L725.5,752.7963 A2.5,2.5 0 0 1 728,755.2963 L728,825.2994 A2.5,2.5 0 0 1 725.5,827.7994 L323.5,827.7994 A2.5,2.5 0 0 1 321,825.2994 L321,732.9994 A2.5,2.5 0 0 1 323.5,730.4994" fill="#FFFFFF" style="stroke:#000000;stroke-width:1;"/><line style="stroke:#000000;stroke-width:1;" x1="321" x2="419.9756" y1="752.7963" y2="752.7963"/><text fill="#000000" font-family="Verdana" font-size="14" font-weight="bold" lengthAdjust="spacing" textLength="85.9756" x="325" y="745.4945">Data Layer</text></g><!--cluster External Systems--><g class="cluster" data-qualified-name="External Systems" data-source-line="48" id="ent0028"><path d="M824.5,730.4994 L962.9229,730.4994 A3.75,3.75 0 0 1 965.4229,732.9994 L972.4229,752.7963 L1139.5,752.7963 A2.5,2.5 0 0 1 1142,755.2963 L1142,825.2994 A2.5,2.5 0 0 1 1139.5,827.7994 L824.5,827.7994 A2.5,2.5 0 0 1 822,825.2994 L822,732.9994 A2.5,2.5 0 0 1 824.5,730.4994" fill="#FFFFFF" style="stroke:#000000;stroke-width:1;"/><line style="stroke:#000000;stroke-width:1;" x1="822" x2="972.4229" y1="752.7963" y2="752.7963"/><text fill="#000000" font-family="Verdana" font-size="14" font-weight="bold" lengthAdjust="spacing" textLength="137.4229" x="826" y="745.4945">External Systems</text></g><!--entity mobile_app--><g class="entity" data-qualified-name="Uber Application.mobile_app" data-source-line="6" id="ent0003"><rect fill="#FFFFFF" height="46.2969" rx="2.5" ry="2.5" style="stroke:#000000;stroke-width:1;" width="117.7246" x="279.14" y="92.6094"/><rect fill="#FFFFFF" height="10" style="stroke:#000000;stroke-width:1;" width="15" x="376.8646" y="97.6094"/><rect fill="#FFFFFF" height="2" style="stroke:#000000;stroke-width:1;" width="4" x="374.8646" y="99.6094"/><rect fill="#FFFFFF" height="2" style="stroke:#000000;stroke-width:1;" width="4" x="374.8646" y="103.6094"/><text fill="#000000" font-family="Verdana" font-size="14" lengthAdjust="spacing" textLength="77.7246" x="294.14" y="125.6045">Mobile App</text></g><!--entity web_app--><g class="entity" data-qualified-name="Uber Application.web_app" data-source-line="7" id="ent0004"><rect fill="#FFFFFF" height="46.2969" rx="2.5" ry="2.5" style="stroke:#000000;stroke-width:1;" width="103.1436" x="431.43" y="92.6094"/><rect fill="#FFFFFF" height="10" style="stroke:#000000;stroke-width:1;" width="15" x="514.5736" y="97.6094"/><rect fill="#FFFFFF" height="2" style="stroke:#000000;stroke-width:1;" width="4" x="512.5736" y="99.6094"/><rect fill="#FFFFFF" height="2" style="stroke:#000000;stroke-width:1;" width="4" x="512.5736" y="103.6094"/><text fill="#000000" font-family="Verdana" font-size="14" lengthAdjust="spacing" textLength="63.1436" x="446.43" y="125.6045">Web App</text></g><!--entity queue--><g class="entity" data-qualified-name="Uber Application.queue" data-source-line="25" id="ent0015"><path d="M120.72,775.4994 L297.2708,775.4994 C302.2708,775.4994 302.2708,788.6478 302.2708,788.6478 C302.2708,788.6478 302.2708,801.7963 297.2708,801.7963 L120.72,801.7963 C115.72,801.7963 115.72,788.6478 115.72,788.6478 C115.72,788.6478 115.72,775.4994 120.72,775.4994" fill="#FFFFFF" style="stroke:#000000;stroke-width:1;"/><path d="M297.2708,775.4994 C292.2708,775.4994 292.2708,788.6478 292.2708,788.6478 C292.2708,801.7963 297.2708,801.7963 297.2708,801.7963" fill="none" style="stroke:#000000;stroke-width:1;"/><text fill="#000000" font-family="Verdana" font-size="14" lengthAdjust="spacing" textLength="166.5508" x="120.72" y="793.4945">Message Queue (Kafka)</text></g><!--entity http_interface--><g class="entity" data-qualified-name="Uber Application.http_interface" data-source-line="28" id="ent0016"><ellipse cx="410" cy="227.9094" fill="#FFFFFF" rx="8" ry="8" style="stroke:#000000;stroke-width:1;"/><text fill="#000000" font-family="Verdana" font-size="14" lengthAdjust="spacing" textLength="85.75" x="367.125" y="257.9045">HTTP/HTTPS</text></g><!--entity db_crud_api--><g class="entity" data-qualified-name="Uber Application.db_crud_api" data-source-line="29" id="ent0017"><ellipse cx="516" cy="676.4994" fill="#FFFFFF" rx="8" ry="8" style="stroke:#000000;stroke-width:1;"/><text fill="#000000" font-family="Verdana" font-size="14" lengthAdjust="spacing" textLength="40.5303" x="495.7349" y="706.4945">CRUD</text></g><!--entity cache_api--><g class="entity" data-qualified-name="Uber Application.cache_api" data-source-line="30" id="ent0018"><ellipse cx="406" cy="676.4994" fill="#FFFFFF" rx="8" ry="8" style="stroke:#000000;stroke-width:1;"/><text fill="#000000" font-family="Verdana" font-size="14" lengthAdjust="spacing" textLength="78.1143" x="366.9429" y="706.4945">Read/Write</text></g><!--entity queue_api--><g class="entity" data-qualified-name="Uber Application.queue_api" data-source-line="31" id="ent0019"><ellipse cx="251" cy="676.4994" fill="#FFFFFF" rx="8" ry="8" style="stroke:#000000;stroke-width:1;"/><text fill="#000000" font-family="Verdana" font-size="14" lengthAdjust="spacing" textLength="131.8105" x="185.0947" y="706.4945">Publish/Pull Events</text></g><!--entity user_service_rest_api--><g class="entity" data-qualified-name="Uber Application.user_service_rest_api" data-source-line="33" id="ent0020"><ellipse cx="340" cy="452.2094" fill="#FFFFFF" rx="8" ry="8" style="stroke:#000000;stroke-width:1;"/><text fill="#000000" font-family="Verdana" font-size="14" lengthAdjust="spacing" textLength="62.6104" x="308.6948" y="482.2045">REST API</text></g><!--entity payment_service_rest_api--><g class="entity" data-qualified-name="Uber Application.payment_service_rest_api" data-source-line="34" id="ent0021"><ellipse cx="643" cy="452.2094" fill="#FFFFFF" rx="8" ry="8" style="stroke:#000000;stroke-width:1;"/><text fill="#000000" font-family="Verdana" font-size="14" lengthAdjust="spacing" textLength="62.6104" x="611.6948" y="482.2045">REST API</text></g><!--entity driver_service_rest_api--><g class="entity" data-qualified-name="Uber Application.driver_service_rest_api" data-source-line="35" id="ent0022"><ellipse cx="481" cy="452.2094" fill="#FFFFFF" rx="8" ry="8" style="stroke:#000000;stroke-width:1;"/><text fill="#000000" font-family="Verdana" font-size="14" lengthAdjust="spacing" textLength="62.6104" x="449.6948" y="482.2045">REST API</text></g><!--entity notification_service_rest_api--><g class="entity" data-qualified-name="Uber Application.notification_service_rest_api" data-source-line="36" id="ent0023"><ellipse cx="176" cy="452.2094" fill="#FFFFFF" rx="8" ry="8" style="stroke:#000000;stroke-width:1;"/><text fill="#000000" font-family="Verdana" font-size="14" lengthAdjust="spacing" textLength="62.6104" x="144.6948" y="482.2045">REST API</text></g><!--entity payment_api--><g class="entity" data-qualified-name="Uber Application.payment_api" data-source-line="38" id="ent0024"><ellipse cx="691" cy="676.4994" fill="#FFFFFF" rx="8" ry="8" style="stroke:#000000;stroke-width:1;"/><text fill="#000000" font-family="Verdana" font-size="14" lengthAdjust="spacing" textLength="141.6816" x="620.1592" y="706.4945">Payment Processing</text></g><!--entity api_gateway--><g class="entity" data-qualified-name="Uber Application.API Layer.api_gateway" data-source-line="10" id="ent0006"><rect fill="#FFFFFF" height="46.2969" rx="2.5" ry="2.5" style="stroke:#000000;stroke-width:1;" width="128.4434" x="345.78" y="316.9094"/><rect fill="#FFFFFF" height="10" style="stroke:#000000;stroke-width:1;" width="15" x="454.2234" y="321.9094"/><rect fill="#FFFFFF" height="2" style="stroke:#000000;stroke-width:1;" width="4" x="452.2234" y="323.9094"/><rect fill="#FFFFFF" height="2" style="stroke:#000000;stroke-width:1;" width="4" x="452.2234" y="327.9094"/><text fill="#000000" font-family="Verdana" font-size="14" lengthAdjust="spacing" textLength="88.4434" x="360.78" y="349.9045">API Gateway</text></g><!--entity user_service--><g class="entity" data-qualified-name="Uber Application.Business Services.user_service" data-source-line="14" id="ent0008"><rect fill="#FFFFFF" height="46.2969" rx="2.5" ry="2.5" style="stroke:#000000;stroke-width:1;" width="128.1016" x="261.95" y="541.2094"/><rect fill="#FFFFFF" height="10" style="stroke:#000000;stroke-width:1;" width="15" x="370.0516" y="546.2094"/><rect fill="#FFFFFF" height="2" style="stroke:#000000;stroke-width:1;" width="4" x="368.0516" y="548.2094"/><rect fill="#FFFFFF" height="2" style="stroke:#000000;stroke-width:1;" width="4" x="368.0516" y="552.2094"/><text fill="#000000" font-family="Verdana" font-size="14" lengthAdjust="spacing" textLength="88.1016" x="276.95" y="574.2045">User Service</text></g><!--entity payment_service--><g class="entity" data-qualified-name="Uber Application.Business Services.payment_service" data-source-line="15" id="ent0009"><rect fill="#FFFFFF" height="46.2969" rx="2.5" ry="2.5" style="stroke:#000000;stroke-width:1;" width="158.1113" x="599.94" y="541.2094"/><rect fill="#FFFFFF" height="10" style="stroke:#000000;stroke-width:1;" width="15" x="738.0513" y="546.2094"/><rect fill="#FFFFFF" height="2" style="stroke:#000000;stroke-width:1;" width="4" x="736.0513" y="548.2094"/><rect fill="#FFFFFF" height="2" style="stroke:#000000;stroke-width:1;" width="4" x="736.0513" y="552.2094"/><text fill="#000000" font-family="Verdana" font-size="14" lengthAdjust="spacing" textLength="118.1113" x="614.94" y="574.2045">Payment Service</text></g><!--entity driver_service--><g class="entity" data-qualified-name="Uber Application.Business Services.driver_service" data-source-line="16" id="ent0010"><rect fill="#FFFFFF" height="46.2969" rx="2.5" ry="2.5" style="stroke:#000000;stroke-width:1;" width="139.2715" x="425.36" y="541.2094"/><rect fill="#FFFFFF" height="10" style="stroke:#000000;stroke-width:1;" width="15" x="544.6315" y="546.2094"/><rect fill="#FFFFFF" height="2" style="stroke:#000000;stroke-width:1;" width="4" x="542.6315" y="548.2094"/><rect fill="#FFFFFF" height="2" style="stroke:#000000;stroke-width:1;" width="4" x="542.6315" y="552.2094"/><text fill="#000000" font-family="Verdana" font-size="14" lengthAdjust="spacing" textLength="99.2715" x="440.36" y="574.2045">Driver Service</text></g><!--entity notification_service--><g class="entity" data-qualified-name="Uber Application.Business Services.notification_service" data-source-line="17" id="ent0011"><rect fill="#FFFFFF" height="46.2969" rx="2.5" ry="2.5" style="stroke:#000000;stroke-width:1;" width="176.5205" x="50.74" y="541.2094"/><rect fill="#FFFFFF" height="10" style="stroke:#000000;stroke-width:1;" width="15" x="207.2605" y="546.2094"/><rect fill="#FFFFFF" height="2" style="stroke:#000000;stroke-width:1;" width="4" x="205.2605" y="548.2094"/><rect fill="#FFFFFF" height="2" style="stroke:#000000;stroke-width:1;" width="4" x="205.2605" y="552.2094"/><text fill="#000000" font-family="Verdana" font-size="14" lengthAdjust="spacing" textLength="136.5205" x="65.74" y="574.2045">Notification Service</text></g><!--entity db--><g class="entity" data-qualified-name="Uber Application.Data Layer.db" data-source-line="21" id="ent0013"><rect fill="#FFFFFF" height="46.2969" rx="2.5" ry="2.5" style="stroke:#000000;stroke-width:1;" width="202.9277" x="509.54" y="765.4994"/><rect fill="#FFFFFF" height="10" style="stroke:#000000;stroke-width:1;" width="15" x="692.4677" y="770.4994"/><rect fill="#FFFFFF" height="2" style="stroke:#000000;stroke-width:1;" width="4" x="690.4677" y="772.4994"/><rect fill="#FFFFFF" height="2" style="stroke:#000000;stroke-width:1;" width="4" x="690.4677" y="776.4994"/><text fill="#000000" font-family="Verdana" font-size="14" lengthAdjust="spacing" textLength="162.9277" x="524.54" y="798.4945">Database (PostgreSQL)</text></g><!--entity cache--><g class="entity" data-qualified-name="Uber Application.Data Layer.cache" data-source-line="22" id="ent0014"><rect fill="#FFFFFF" height="46.2969" rx="2.5" ry="2.5" style="stroke:#000000;stroke-width:1;" width="137.3232" x="337.34" y="765.4994"/><rect fill="#FFFFFF" height="10" style="stroke:#000000;stroke-width:1;" width="15" x="454.6632" y="770.4994"/><rect fill="#FFFFFF" height="2" style="stroke:#000000;stroke-width:1;" width="4" x="452.6632" y="772.4994"/><rect fill="#FFFFFF" height="2" style="stroke:#000000;stroke-width:1;" width="4" x="452.6632" y="776.4994"/><text fill="#000000" font-family="Verdana" font-size="14" lengthAdjust="spacing" textLength="97.3232" x="352.34" y="798.4945">Cache (Redis)</text></g><!--entity external_payment_gateway--><g class="entity" data-qualified-name="External Systems.external_payment_gateway" data-source-line="49" id="ent0029"><rect fill="#FFFFFF" height="46.2969" rx="2.5" ry="2.5" style="stroke:#000000;stroke-width:1;" width="287.8916" x="838.05" y="765.4994"/><rect fill="#FFFFFF" height="10" style="stroke:#000000;stroke-width:1;" width="15" x="1105.9416" y="770.4994"/><rect fill="#FFFFFF" height="2" style="stroke:#000000;stroke-width:1;" width="4" x="1103.9416" y="772.4994"/><rect fill="#FFFFFF" height="2" style="stroke:#000000;stroke-width:1;" width="4" x="1103.9416" y="776.4994"/><text fill="#000000" font-family="Verdana" font-size="14" lengthAdjust="spacing" textLength="247.8916" x="853.05" y="798.4945">External Payment Gateway (Stripe)</text></g><!--link mobile_app to http_interface--><g class="link" data-entity-1="ent0003" data-entity-2="ent0016" data-source-line="42" id="lnk25"><path d="M352.74,139.3194 C368.95,164.1194 388.6485,194.2491 399.3885,210.6791" fill="none" id="mobile_app-to-http_interface" style="stroke:#000000;stroke-width:1;"/><path d="M410.2547,211.8454 A9,9 0 0 0 396.0968 221.1002" fill="none" style="stroke:#000000;stroke-width:1.5;"/></g><!--link web_app to http_interface--><g class="link" data-entity-1="ent0004" data-entity-2="ent0016" data-source-line="43" id="lnk26"><path d="M468.05,139.3194 C451.62,164.1194 431.6247,194.2841 420.7347,210.7141" fill="none" id="web_app-to-http_interface" style="stroke:#000000;stroke-width:1;"/><path d="M423.96,221.156 A9,9 0 0 0 409.8613 211.8112" fill="none" style="stroke:#000000;stroke-width:1.5;"/></g><!--link http_interface to api_gateway--><g class="link" data-entity-1="ent0016" data-entity-2="ent0006" data-link-type="association" data-source-line="44" id="lnk27"><path d="M410,236.8294 C410,253.3094 410,291.7894 410,316.5594" fill="none" id="http_interface-api_gateway" style="stroke:#000000;stroke-width:1;"/></g><!--link api_gateway to user_service_rest_api--><g class="link" data-entity-1="ent0006" data-entity-2="ent0020" data-source-line="54" id="lnk30"><path d="M395.67,363.6094 C379.91,388.4094 360.8031,418.4692 350.3631,434.8992" fill="none" id="api_gateway-to-user_service_rest_api" style="stroke:#000000;stroke-width:1;"/><path d="M353.7889,445.277 A9,9 0 0 0 339.5128 436.2056" fill="none" style="stroke:#000000;stroke-width:1.5;"/></g><!--link api_gateway to payment_service_rest_api--><g class="link" data-entity-1="ent0006" data-entity-2="ent0021" data-source-line="55" id="lnk31"><path d="M457.71,363.6094 C514.7,390.5494 596.8492,429.3858 625.2392,442.8058" fill="none" id="api_gateway-to-payment_service_rest_api" style="stroke:#000000;stroke-width:1;"/><path d="M635.1114,438.1179 A9,9 0 0 0 627.8828 453.4099" fill="none" style="stroke:#000000;stroke-width:1.5;"/></g><!--link api_gateway to driver_service_rest_api--><g class="link" data-entity-1="ent0006" data-entity-2="ent0022" data-source-line="56" id="lnk32"><path d="M424.54,363.6094 C440.52,388.4094 459.9223,418.5041 470.5123,434.9341" fill="none" id="api_gateway-to-driver_service_rest_api" style="stroke:#000000;stroke-width:1;"/><path d="M481.3709,436.1702 A9,9 0 0 0 467.1538 445.3339" fill="none" style="stroke:#000000;stroke-width:1.5;"/></g><!--link api_gateway to notification_service_rest_api--><g class="link" data-entity-1="ent0006" data-entity-2="ent0023" data-source-line="57" id="lnk33"><path d="M362.08,363.6094 C304.85,390.5494 222.3178,429.4005 193.8078,442.8205" fill="none" id="api_gateway-to-notification_service_rest_api" style="stroke:#000000;stroke-width:1;"/><path d="M191.1469,453.4203 A9,9 0 0 0 183.9432 438.1165" fill="none" style="stroke:#000000;stroke-width:1.5;"/></g><!--link user_service_rest_api to user_service--><g class="link" data-entity-1="ent0020" data-entity-2="ent0008" data-link-type="association" data-source-line="59" id="lnk34"><path d="M338.99,461.1294 C336.9,477.5994 332.01,516.0894 328.86,540.8494" fill="none" id="user_service_rest_api-user_service" style="stroke:#000000;stroke-width:1;"/></g><!--link payment_service_rest_api to payment_service--><g class="link" data-entity-1="ent0021" data-entity-2="ent0009" data-link-type="association" data-source-line="60" id="lnk35"><path d="M645.59,461.1294 C650.97,477.5994 663.55,516.0894 671.65,540.8494" fill="none" id="payment_service_rest_api-payment_service" style="stroke:#000000;stroke-width:1;"/></g><!--link driver_service_rest_api to driver_service--><g class="link" data-entity-1="ent0022" data-entity-2="ent0010" data-link-type="association" data-source-line="61" id="lnk36"><path d="M482.01,461.1294 C484.1,477.5994 488.99,516.0894 492.14,540.8494" fill="none" id="driver_service_rest_api-driver_service" style="stroke:#000000;stroke-width:1;"/></g><!--link notification_service_rest_api to notification_service--><g class="link" data-entity-1="ent0023" data-entity-2="ent0011" data-link-type="association" data-source-line="62" id="lnk37"><path d="M173.34,461.1294 C167.8,477.5994 154.88,516.0894 146.56,540.8494" fill="none" id="notification_service_rest_api-notification_service" style="stroke:#000000;stroke-width:1;"/></g><!--link db_crud_api to db--><g class="link" data-entity-1="ent0017" data-entity-2="ent0013" data-link-type="association" data-source-line="64" id="lnk39"><path d="M522.83,685.4194 C537.04,701.8994 570.23,740.3794 591.59,765.1494" fill="none" id="db_crud_api-db" style="stroke:#000000;stroke-width:1;"/></g><!--link cache_api to cache--><g class="link" data-entity-1="ent0018" data-entity-2="ent0014" data-link-type="association" data-source-line="65" id="lnk41"><path d="M406,685.4194 C406,701.8994 406,740.3794 406,765.1494" fill="none" id="cache_api-cache" style="stroke:#000000;stroke-width:1;"/></g><!--link queue_api to queue--><g class="link" data-entity-1="ent0019" data-entity-2="ent0015" data-link-type="association" data-source-line="66" id="lnk43"><path d="M247.98,685.4194 C240.76,704.3694 222.44,752.3994 213.74,775.2294" fill="none" id="queue_api-queue" style="stroke:#000000;stroke-width:1;"/></g><!--link user_service to db_crud_api--><g class="link" data-entity-1="ent0008" data-entity-2="ent0017" data-source-line="69" id="lnk44"><path d="M365.85,587.8194 C405.19,610.0194 460.89,641.4994 471,647.4994 C483.66,655.0194 489.6307,658.7149 498.6607,664.4549" fill="none" id="user_service-to-db_crud_api" style="stroke:#000000;stroke-width:1;"/><path d="M509.0391,661.0308 A9,9 0 0 0 499.9653 675.3054" fill="none" style="stroke:#000000;stroke-width:1.5;"/></g><!--link payment_service to db_crud_api--><g class="link" data-entity-1="ent0009" data-entity-2="ent0017" data-source-line="70" id="lnk45"><path d="M645.62,587.9094 C607.43,613.7194 555.5757,648.7605 533.1257,663.9305" fill="none" id="payment_service-to-db_crud_api" style="stroke:#000000;stroke-width:1;"/><path d="M532.1256,674.8134 A9,9 0 0 0 522.6554 660.7985" fill="none" style="stroke:#000000;stroke-width:1.5;"/></g><!--link driver_service to db_crud_api--><g class="link" data-entity-1="ent0010" data-entity-2="ent0017" data-source-line="71" id="lnk46"><path d="M499.3,587.9094 C504.03,612.7094 509.4986,641.386 512.6286,657.816" fill="none" id="driver_service-to-db_crud_api" style="stroke:#000000;stroke-width:1;"/><path d="M522.2318,663.0329 A9,9 0 0 0 505.6161 666.1983" fill="none" style="stroke:#000000;stroke-width:1.5;"/></g><!--link notification_service to db_crud_api--><g class="link" data-entity-1="ent0011" data-entity-2="ent0017" data-source-line="72" id="lnk47"><path d="M183.53,587.9494 C201.86,596.4494 223.56,605.4994 244,611.4994 C342.01,640.2894 375.29,611.8094 471,647.4994 C484.62,652.5794 490.57,656.0594 499.25,662.5694" fill="none" id="notification_service-to-db_crud_api" style="stroke:#000000;stroke-width:1;"/><path d="M509.8618,659.9567 A9,9 0 0 0 499.7131 673.4883" fill="none" style="stroke:#000000;stroke-width:1.5;"/></g><!--link user_service to cache_api--><g class="link" data-entity-1="ent0008" data-entity-2="ent0018" data-source-line="74" id="lnk48"><path d="M342.38,587.9094 C360.39,612.7094 382.4844,643.1175 394.4144,659.5475" fill="none" id="user_service-to-cache_api" style="stroke:#000000;stroke-width:1;"/><path d="M405.3248,660.1795 A9,9 0 0 0 391.6379 670.1177" fill="none" style="stroke:#000000;stroke-width:1.5;"/></g><!--link payment_service to cache_api--><g class="link" data-entity-1="ent0009" data-entity-2="ent0018" data-source-line="75" id="lnk49"><path d="M634.63,587.9594 C618.29,595.8794 599.5,604.5394 582,611.4994 C533.81,630.6794 519.54,629.2194 471,647.4994 C450.53,655.2094 436.1822,661.5544 423.8122,667.2544" fill="none" id="payment_service-to-cache_api" style="stroke:#000000;stroke-width:1;"/><path d="M421.065,677.8322 A9,9 0 0 0 413.9863 662.4702" fill="none" style="stroke:#000000;stroke-width:1.5;"/></g><!--link driver_service to cache_api--><g class="link" data-entity-1="ent0010" data-entity-2="ent0018" data-source-line="76" id="lnk50"><path d="M476.77,587.9094 C456.74,612.7094 431.9161,643.4322 418.6361,659.8622" fill="none" id="driver_service-to-cache_api" style="stroke:#000000;stroke-width:1;"/><path d="M420.8623,670.5617 A9,9 0 0 0 407.7076 659.9291" fill="none" style="stroke:#000000;stroke-width:1.5;"/></g><!--link notification_service to cache_api--><g class="link" data-entity-1="ent0011" data-entity-2="ent0018" data-source-line="77" id="lnk51"><path d="M188.67,587.9394 C206.07,595.6494 225.81,604.1694 244,611.4994 C287.04,628.8494 298.95,630.1994 342,647.4994 C362.03,655.5594 376.0535,661.7956 388.2735,667.3756" fill="none" id="notification_service-to-cache_api" style="stroke:#000000;stroke-width:1;"/><path d="M398.0828,662.5576 A9,9 0 0 0 391.057 677.9439" fill="none" style="stroke:#000000;stroke-width:1.5;"/></g><!--link user_service to queue_api--><g class="link" data-entity-1="ent0008" data-entity-2="ent0019" data-source-line="80" id="lnk52"><path d="M310.64,587.9094 C293.76,612.7094 273.1692,642.9442 261.9792,659.3742" fill="none" id="user_service-to-queue_api" style="stroke:#000000;stroke-width:1;"/><path d="M265.0728,669.8559 A9,9 0 0 0 251.0927 660.3345" fill="none" style="stroke:#000000;stroke-width:1.5;"/></g><!--link payment_service to queue_api--><g class="link" data-entity-1="ent0009" data-entity-2="ent0019" data-source-line="81" id="lnk53"><path d="M638.54,587.8894 C621.54,596.4894 601.26,605.6194 582,611.4994 C478.85,643.0094 447.17,623.5794 342,647.4994 C311.38,654.4694 285.5014,663.1671 269.3414,668.9171" fill="none" id="payment_service-to-queue_api" style="stroke:#000000;stroke-width:1;"/><path d="M265.6552,679.2054 A9,9 0 0 0 259.985 663.2696" fill="none" style="stroke:#000000;stroke-width:1.5;"/></g><!--link driver_service to queue_api--><g class="link" data-entity-1="ent0010" data-entity-2="ent0019" data-source-line="82" id="lnk54"><path d="M454.71,587.8094 C440.15,595.6394 423.49,604.2594 408,611.4994 C352.81,637.3094 293.598,659.7576 269.368,668.7276" fill="none" id="driver_service-to-queue_api" style="stroke:#000000;stroke-width:1;"/><path d="M265.8129,679.0619 A9,9 0 0 0 259.9406 663.1995" fill="none" style="stroke:#000000;stroke-width:1.5;"/></g><!--link notification_service to queue_api--><g class="link" data-entity-1="ent0011" data-entity-2="ent0019" data-source-line="83" id="lnk55"><path d="M161.94,587.9094 C187.15,612.7094 219.1694,644.1983 235.8794,660.6283" fill="none" id="notification_service-to-queue_api" style="stroke:#000000;stroke-width:1;"/><path d="M246.7445,659.4508 A9,9 0 0 0 234.8857 671.5117" fill="none" style="stroke:#000000;stroke-width:1.5;"/></g><!--link payment_service to payment_api--><g class="link" data-entity-1="ent0009" data-entity-2="ent0024" data-source-line="86" id="lnk56"><path d="M681.46,587.9094 C684.16,612.7094 687.2669,641.2682 689.0569,657.6982" fill="none" id="payment_service-to-payment_api" style="stroke:#000000;stroke-width:1;"/><path d="M698.2141,663.6633 A9,9 0 0 0 681.3991 665.4953" fill="none" style="stroke:#000000;stroke-width:1.5;"/></g><!--link payment_api to external_payment_gateway--><g class="link" data-entity-1="ent0024" data-entity-2="ent0029" data-link-type="association" data-source-line="87" id="lnk57"><path d="M699.71,680.7994 C732.38,693.1694 849.5,737.4994 922.22,765.0294" fill="none" id="payment_api-external_payment_gateway" style="stroke:#000000;stroke-width:1;"/></g><?plantuml-src VPNRRk8m48RlynJUt40l4C_G1RIjjbsb7DIBQXKvoG1MSrhRWKMhlllQSHmxmOw449xvFFx7unc-yJCKWEeSap88EE4ve4C253tMTKvIp4bLebLLr5K99KThWayK5q5Gu_GJdm25OpX4_mA4FbwhX8XGml4ROOQATXdZkfRETqXwpnMIpYm-VTJ7w1czu1jG5KxiaPOVcCCLtzfzk2RnIQq5y3NQ_xrXf0J6q0xeXQJ0-ZW79lHsrZPG8mmnKmQ5HFXMo6HjgbQs8RYcv3AAbhMc8VQhukIexzA6IyjXRHadiyOSZsv3cXBC0CsZYl4JXTtRouCIa2XYXTEpS6yX8qnvKcanuVyqq8ZWh-AMv2blxNB-4ny_yKCe-HPGx0mzbnpe4QTW7WCJZla32f_s-sWfltRjjZFdTKmqtZ6hxM4TAdbnIfjCb9nqhYtWRFbE2OUmLscveoR92JileoRFqUOYppNgMax7sUpsIBoIS5pKc0BZze4sEAhh93kixIJgggozGIVNlRI8LkADYYTx6eZgsRO4gvn8bbV8wWNXCRs55bbrBHVp-nfqNUO7XeQE6pHPy6Lr_UQl84kSezsDSIYwzlhepJgnJYMQxpWbDQY721qLwppr4UA4O6Pd9vEzQ-N0KjKdv2wuY_HMt0NxIkvYfsiUE1NgYnuC8Pz23OzdaKUanaSZQLActkESJ46Me4LJBmPDtFQhCflMLREbDLfzEhklfIom6M-3Ep8ri4uRfUvaXlaw4LTwJj2jo2JgqsC8Zne3J6encE_s1lFRBTUKm2VN41wv1fYKEoZsw6zKYlND1wymUn9Ql_KpzKsI_m00?></g></svg>